<?xml version="1.0" encoding="UTF-8"?>
<svg version="1.1" viewBox="0 0 1369 903" width="464" height="300" xmlns="http://www.w3.org/2000/svg">
<path transform="translate(0)" d="m0 0h1369v903h-1369z" fill="#FDFDFD"/>
<path transform="translate(1156)" d="m0 0h213v787l-4 1-428 17h-17l-15-3-11-5-10-6-11-10-7-10-7-14-14-36-13-33-16-40-4-8-24-2-17-3-12-2-5-2-13-3-6-2-2-9v-4h2l2-10v-3l-12-8-9-11-6-9-3-9-3-12-1-10-27-2-5-2 1-4 2-2 6-2 1-15 2-5 1-1h-8l-2 6-2 9-5-3-2-4v-9l1-3-2-3 1-6 1-2v-11l2-10v-21l-1-9-1-5 11 6 4 7 7 4v-24l2-3 1 3 1-14h-7l-3-2v-10l3-9 3 1v2h2l-2-6 2-5 3-3 6 6v2l157-1 35-3 47-5 34-5 36-6 34-6 7-3 6-10 1-8-8 1-33 1v1l-49 5-5-1v-1l10-2h-42v-1l26-3-73 1-25 1h-12v2l16 1v1l-17 1h-23l1-3 17-10 6-5 5-5 11-10 23-16 11-8 2 1-5 4-13 10-11 9-3 1v2l-6 5-1 2h3l1-3 7-2 16-12 14-10 9-6h3v-2l9-6 1-4h-2v-2l-5 1v-2l-18 11-17 12-18 14-11 9-10 9-9 7-10-1-2 2 1 4-9 3-65 10-28 7-10 3-3-7-2-11v-15l3-15 5-12 8-12 11-11 24-16 25-17 68-46 40-27 33-22 23-16 33-22 31-21 37-25 83-56 15-10z" fill="#4A70FD"/>
<path transform="translate(1112,263)" d="m0 0h5l-3 2-9 4-1 2h4l-1 5-1 2h-2l-1 5-9 17-1 3h-2l-3 9-8 14-7 11-9 6-6 1 1 7-4 8-5 6-8 4-24 4h-4v8l-7 7-25 16-15 9-10 2-21 2-18 2-25 2h-30l-12 7-12 11-8 10v4l10-2 41-4 23-1 7-1h27l6 5 2 9 3 28v6l-1 1-38 3 3-3-3-1v2l-4-1 1-2h-2l-2-10-3-4v-2h-2l-6-8v-2h-15v2l-6 1 7 8 18 18v2h2v-2h7l-4 2-1 2 45-2 4-1-2 20h-10l-26 2-51 2 4 4 27 1h42l10-1 3-1-2 4-8 6-11 2-26 2h-50l-15-15-5-4h-13l1 9h2l4 11 3 4 19 3h26l30-1h28l2 2 36 4h19l-2-6h-2l-2-14-3-4 3-1 4-11h2l1-7h2l2-9 3-4-3-1 3-2 4-10 8-16 7-13 6-9 10-9 11-5 11-3 7-1h17l8 3 7 8 6 12 4 13 2 6 2 10 1 13 1 1 1 11 1-1v-29l-1-14v-12h1l2 16 2 35 7-1 4-1 4-2h21v-2l8-3h4l1-4 7-1 6 5 2 1 27-7h3v-7h3v5l18-4 16-4 12-2v2l-3 3 13-4 4-15 7-21 8-14 10-9 6-2h13l5 4 4 7 4 13 3 24 2 3 1 10v12l-1 3-2 23-2 3-7 1-1 14-4 17-5 12-7 10-2 5-9 4-12 2-14 1-17 3-3 1-14 2-4 1-28 5-16 3-20 3-27 5-10 1-30 5-5 1-6 1h-7l-5 5-7 9-2 6-5 4-12 4-27 5-40 4-21 1-57-2-41-2h-3l-26-1-17-1-9-1-20-2-17-3-12-2-5-2-13-3-6-2-2-9v-4h2l2-10v-3l-12-8-9-11-6-9-3-9-3-12-1-10-27-2-5-2 1-4 2-2 6-2 1-15 2-5 1-1h-8l-2 6-2 9-5-3-2-4v-9l1-3-2-3 1-6 1-2v-11l2-10v-21l-1-9-1-5 11 6 4 7 7 4v-24l2-3 1 3 1-14h-7l-3-2v-10l3-9 3 1v2h2l-2-6 2-5 3-3 6 6v2l157-1 35-3 47-5 34-5 36-6 34-6 7-3 6-10 1-8-8 1-33 1v1l-49 5-5-1v-1l10-2h-42v-1l26-3h-91l2-2 19-2 6-2 13-5 16-3 15-1v-2l9-4 5-2 5-10 3-5 8-4 9-1 2-2 14-3 5-5 4-2 4 1 5 1 7-1 3-1v-2l-4-1 4-3 17-4 3-3 7-2 2-4 50-2 11-5z" fill="#121215"/>
<path transform="translate(1362,443)" d="m0 0 2 2 1 13 3 8v321l-3 1-428 17h-17l-15-3-11-5-10-6-11-10-7-10-7-14-14-36-13-33-16-40-3-8h11l30 2 105 4h11l42-4 21-3 20-4 9-4 4-3 2-6 10-13 2-1h8l9-1 6-2 25-4 21-3 36-6 16-3 30-5 9-2 9-1 7-2 11-2 21-2 13-4 5-10 5-7 5-13 3-14 2-14 7-2 1-2 2-18 6-7h3l1-5 6-13 1-3 2-8h2l-1-7 5-4z" fill="#2F5BFC"/>
<path transform="translate(1094,259)" d="m0 0 25 1-1 3 20-3 28 1 47 6 34 6 12 3 11 2 24 8 2 4v9l-4-2-9-6-25-6-28-5-9-7-15-3-26-3-15-1h-20l-14 2-10 5-6 7-9 16-10 25-4 13-2 1h-15v2l9-1h9l2-10 8-22 8-16 7-11 8-6 9-3 7-1h28l-1 2h-20l-15 2-10 5-8 9-11 21-6 15h4l-3 11-1 3v18l4 4 16 1v-2h19l19-2 25-2h13v1l-45 4h9l34-3 4-1-1-2 49-4 8-1 2-4 8-10h11l-4 2-1 1 5-1-5 4-6 8 3-1h13l-3-6v-2h2l2 7 17-1 2-4-11-1-13-2v-3l3-1 16 2 16 3 1 2 8 3 7 11 1 3h-8l1 5 7 7 8 12 2 10 1 27 4 9 2 3-1 23-3 3-10 2-2-13-2-10-5-15-5-7-2-1h-13l-7 3-9 8-8 15-7 21-3 13-7 3-9 2 3-4h-3l-20 4-19 5-3-1v-5h-1l-1 7-30 8-4-1-1-4-7-1h-3l-1 4-12 3v2l-8 1h-13l-12 4-4-1-3-46 1 21v29l-3 2-1-12-1-1-1-13-4-16-4-13-7-14-7-6-6-2h-17l-15 3-10 4-6 4-8 7-8 13-10 19-4 10-3 6-2 1 2 1-2 4-3 9h-2l-1 7h-2l-2 9-3 4 2 3 1 14h2l3 5-1 2h-20l-17-2-18-2-4-2h-26l-30 1h-26l-19-3-4-5-3-7v-4h-2l-2-5 1-5h13l3 2v2l4 2 13 13h50l34-3 8-4 4-5-2 1-10 1h-42l-27-1-4-3v-2l3-1 48-2 26-2h8l2 1v-11l1-8-3 1-20 1h-25l1-3-3-1v2h-2l-7-8-18-18-1-3h7v-2h15l6 8v2h2l4 6 1 10h2v2l3 1v-2l4 1-3 2 37-3-1-18-3-23-4-5-2-1h-27l-7 1-35 2-36 4-5 2 1-6 8-10 9-9 14-9 2-1h30l38-3 18-2 15-2 10-5 19-12 15-10 5-5 1-8 28-5 8-4 7-10 1-8v-2l10-4 3-3h2l2-5 5-8 9-16 2-5h2l1-4 10-21h2l2-7h-4l1-3 9-4-9 2-8 4-69 1-39 2-41 4-18 2 2-3 14-5 38-6 52-4 19-1z" fill="#CFD0D2"/>
<path transform="translate(1112,263)" d="m0 0h5l-3 2-9 4-1 2h4l-1 5-1 2h-2l-1 5-9 17-1 3h-2l-3 9-8 14-7 11-9 6-6 1 1 7-4 8-5 6-8 4-24 4h-4v8l-7 7-25 16-15 9-10 2-21 2-18 2-25 2h-30l-12 7-12 11-8 10v4l10-2 41-4 23-1 7-1h27l6 5 2 9 3 28v6l-1 1-38 3 3-3-3-1v2l-4-1 1-2h-2l-2-10-3-4v-2h-2l-6-8v-2h-15v2l-10 1 9 11 3 3v2h2l7 8 3 4-26 6-12 3h-8l-10-10-11-8v-2l-4-1-7-2-46-3-72-3-12 1-4 8-2 9-6 1-3 10 4 1-2 7-5-1-1 3v-9l1-3-2-3 1-6 1-2v-11l2-10v-21l-1-9-1-5 11 6 4 7 7 4v-24l2-3 1 3 1-14h-7l-3-2v-10l3-9 3 1v2h2l-2-6 2-5 3-3 6 6v2l157-1 35-3 47-5 34-5 36-6 34-6 7-3 6-10 1-8-8 1-33 1v1l-49 5-5-1v-1l10-2h-42v-1l26-3h-91l2-2 19-2 6-2 13-5 16-3 15-1v-2l9-4 5-2 5-10 3-5 8-4 9-1 2-2 14-3 5-5 4-2 4 1 5 1 7-1 3-1v-2l-4-1 4-3 17-4 3-3 7-2 2-4 50-2 11-5z" fill="#161618"/>
<path transform="translate(1236,528)" d="m0 0 4 1 5 19 2 11 4 2 2 3v5l11 2h21l14-4 5-5 2-1-3 9-4 3-11 3-21 2-17 3-3 1-14 2-4 1-28 5-16 3-20 3-27 5-10 1-30 5-5 1-6 1h-7l-5 5-7 9-2 6-5 4-12 4-27 5-40 4-21 1-57-2-41-2h-3l-26-1-17-1-9-1-20-2-17-3-12-2-5-2-13-3-6-2-2-9v-4h2l2-10 2-3 7 1 2 1-1 5 2 6 20 3 2 1 1-2v3h12l18 3h3l-3-9 2-5h6l-1-6-7-1-1-3 3-3 7-4 9-12 5-9 1-1 20-2 13 1 6 5 3 1 22 1 12 2h10l17-4h28l9 3v8h2l3 9 2 7 2 9h2v3h2l1 7-4 2-7 2-2 4 2 2 8 3 16 2h48l10-2 6-4-2-2 10-5 5-4 2-3h2l2-5 7-15 5-15 3-16 2-2h9l3-1 1-12 16-1 12-2 4-2h5l1-1 18-1 25-5 23-5 6-1h13z" fill="#0D173C"/>
<path transform="translate(1145,265)" d="m0 0h20l24 2 29 4 7 4 5 4 28 5 25 6 9 6 6 7 1 4 4 2 8 16 6 14-7-1-24-4-10-1 1 2 22 4-2 5h-17l-2-4v-3h-2l3 6v2l-16 1 2-4 5-6-4 1 4-4h-7l-10 13-8 2-48 4 3 2-32 3-9 1h-13l4-2 32-3-38 3-6 1h-16l-3-1v2h-16l-5-5v-18l5-14h-4l3-10 11-23 7-9 7-6 7-3 15-2h20l1-1-28 1-12 2-10 6-7 10-8 16-8 21-4 13-9 1h-9v-2l17-1 2-10 8-21 8-16 7-11 7-6 7-3z" fill="#141416"/>
<path transform="translate(846,566)" d="m0 0 13 1 6 5 3 1 22 1 12 2h10l17-4h28l9 3v8h2l3 9 2 7 2 9h2v3h2l1 7-4 2-7 2-2 4 2 2 8 3 16 2h48l10-2 6-4-2-2 8-4h2l-2 5h-2l-2 5-6 3-11 2-28 2h-58l-15-1-5-1h-28l-12-1-1-1h-18l-5-1h-15l-48-3-5-1-34-4-12-3-7-2-7-5-1-2v-6h2l-1-3 2-3 2 1-1 5 2 6 20 3 2 1 1-2v3h12l18 3h3l-3-9 2-5h6l-1-6-7-1-1-3 3-3 7-4 9-12 5-9 1-1z" fill="#0D173B"/>
<path transform="translate(914,280)" d="m0 0 3 1-1 1h3v2l3-1v5l-9 6h-2v2l-8 4-11 8-19 14-5 4-6 1-1 2h-3l2-4 3-3h2v-2l14-11 13-10 2-2-19 13-16 12-11 10h-2l-1 3-11 8-12 7-1 2 23-1 3-1-2-1v-2l12-1 25-1 73-1 2 2-20 2h34l1 2-10 2 43-4-11-1v-1l62-1 1 5-6 12-5 4h-4v-2h-9l-18 3h-6v2l-17 2-1 2-8 2-6-1-1 2-21 3-27 3-49 6-33-1v2l-4 1h-141l1-3h2l2-4 9-7 8-4 14-6 13-4 4 2-9 4-13 4-3 2h13l40-5 23-2 11-3 23-3 22-2 7-1h20l4 1 1 3-5 2-12 3-3 1v3l13-4h3l1-3 24-6 15-3-13-1-42-1h-54l-2-10 3-2 10 1 26-22 14-11 16-12 15-10z" fill="#D0D1D3"/>
<path transform="translate(1112,263)" d="m0 0h5l-3 2-9 4-1 2h4l-1 5-1 2h-2l-1 5-9 17-1 3h-2l-3 9-8 14-7 11-9 6-17 2h-183l2-2 19-2 6-2 13-5 16-3 15-1v-2l9-4 5-2 5-10 3-5 8-4 9-1 2-2 14-3 5-5 4-2 4 1 5 1 7-1 3-1v-2l-4-1 4-3 17-4 3-3 7-2 2-4 50-2 11-5z" fill="#121214"/>
<path transform="translate(87,669)" d="m0 0h101l8 3 6 5 5 10v12l-5 10-8 6-6 2h-101l-8-3-8-7-3-6-1-4v-8l4-10 8-7z" fill="#315CF9"/>
<path transform="translate(1028,270)" d="m0 0h42v1h-23l-1 4-2 2h-6l-1 3-5 2-16 4-1 1 3 1v2l-3 2-11 1-2-2-6 1-5 5-9 3-14 4-5 1-6 3-8 16-5 1-6 3h-3l1 3-24 2-16 5-6 3-14 2-10 1 16 1v1l-25 1h-12v2l16 1v1l-17 1h-23l1-3 17-10 6-5 5-5 11-10 23-16 11-8 2 1-5 4-13 10-11 9-3 1v2l-6 5-1 2h3l1-3 7-2 16-12 14-10 9-6h3v-2l9-6 1-4h-2v-2l-5 1 1-2h2v-2l13-4 7-2v2l-6 3 46-5 26-2z" fill="#5B5D62"/>
<path transform="translate(1057,343)" d="m0 0 3 1h-2l1 7-4 8-5 6-8 4-24 4h-4v8l-7 7-14 9-5 1-3 2h-3l-1 3-12 6-3-1 3-2 1-4 3-3-4 2-8 7h-3l-9 4-3 1-12 1h-11l-7-3-2-1-18 1-19 2h-5l4-2 11-2 28-2 2 2 5 2h14l14-2 4-3-1-1v-7h3l1 5 10-9 6-3 13-2 1-2-4-1-3 2-6 1-9 2h-5l-2 5-7 1-3-2-1 4-1-1-1 2h3l-1 3h-2v2h-2l-1 3-1-3-4 1-4-5v-2h2v-2h6v-2l-9 2-10 2-8 6-16 2-12 2h-10l1-2 31-4 6-3-10 1-2 1-16 2-10 2 4-3 14-3 10-2 25-4 1-3-19 2-14 2-9 2-33 5-10 5h-2l-1 4-2 4-1 8-1 4h-2l-1 9-3 6-10 2h-2l1-6 9-16 7-10 8-10 5-3h-83l-4-1v2l-3 1 6 4 2 2v7l-4 10-3 1-3 3-5 2-11-1-5-4-1-4h-2l-2-5h-19l-17-1v-5h4l2-5 1-1h8l2 3v5l18 1-1-6-10 1 1-3h8l3 1v4h2l2-5 4-5-10-2-34-1-2 20-2-1h-7l-3-2v-10l3-9 3 1v2h2l-2-6 2-5 3-3 6 6v2l157-1 35-3 47-5 34-5 36-6 34-6 7-3 6-10 1-8-8 1-33 1v1l-49 5-5-1v-1l10-2h-42v-1l26-3v-1h92z" fill="#5F6166"/>
<path transform="translate(1193,16)" d="m0 0h94l10 5 6 8 2 5v12l-5 10-8 6-5 2h-94l-10-5-6-8-2-5v-12l5-10 8-6z" fill="#FBFBFC"/>
<path transform="translate(949,438)" d="m0 0 4 4 3 12 3 26v15l26-2h7l3 1-2 4-3 9h-2l-1 7h-2l-2 9-3 4 2 3 1 14h2l3 5-1 2h-20l-17-2-18-2-4-2h-26l-30 1h-26l-19-3-4-5-3-7v-4h-2l-2-5 1-5h13l3 2v2l4 2 13 13h50l34-3 8-4 4-5-2 1-10 1h-42l-27-1-4-3v-2l3-1 48-2 26-2h8l2 1v-11l1-8-3 1-20 1h-25l1-3-3-1v2h-2l-7-8-18-18-1-3h7v-2h15l6 8v2h2l4 6 1 10h2v2l3 1v-2l4 1-3 2 37-3-1-18-2-16v-5l3-1 1-4v-7z" fill="#6D6F74"/>
<path transform="translate(1145,265)" d="m0 0h20l24 2 29 4 7 4 3 3v3l3 1v2l3 1v2l4 2 7 8 9 10 9 12h-3l-6-5-7-9-9-10-3-2 2 6 13 17 4 7-1 2h-3l-4 1v2h-2l-12-35v-2h3v-2l-43-2h-33l-13 2-4 2 9-1h18l5 18 2 11v8h-3l-2 9-3-3-2-5h-1l1 5 1 2v9h-4v-3l-11 1-2 1h-12l-1-3-2 2-26 2v-2l4-2 13-3h14v1l16-1 4-2h4l-1-3-7-2-34 3h-5v-8l1-1 17 1 12 2h11l-2-2-14-4-8-1h-15l-7 3-3 9-7-1v-2h4v-2h-3l-1-4 1-2h-4l3-10 11-23 7-9 7-6 7-3 15-2h20l1-1-28 1-12 2-10 6-7 10-8 16-8 21-4 13-9 1h-9v-2l17-1 2-10 8-21 8-16 7-11 7-6 7-3z" fill="#515359"/>
<path transform="translate(1305,561)" d="m0 0v3l-3 7-9 4-12 2-14 1-17 3-3 1-14 2-4 1-28 5-16 3-20 3-27 5-10 1-30 5-5 1-6 1h-7l-5 5-7 9-2 6-5 4-12 4-27 5-40 4-21 1-57-2-41-2h-3l-26-1-17-1-9-1-20-2-17-3-12-2-5-2-13-3-6-2-2-9v-4h2l2-10 2-3 6 1v6h-2v6l2 1 3 3 5 3 13 3 11 2 20 2 12 1v2l3-1 45 3h19l1 1h18l1 1 14 1h27l4 1 23 1h53l25-2 13-3 4-2 3-6 2-1 2-4 5-5 3-1 2-5 4-5 5-10 17-1 12-1 5-1 12-1 13-2 36-3 17-3 12-2 19-3 17-1 34-1 13-2 7-3 2-5z" fill="#192B6F"/>
<path transform="translate(1094,259)" d="m0 0 25 1-1 3 20-3 28 1 47 6 34 6 12 3 11 2 24 8 2 4v9l-4-2-9-6-25-6-28-5-9-7-15-3-26-3-15-1h-20l-14 2-10 5-6 7-9 16-10 25-4 13-2 1h-15v2h15l-1 5-7 16-3 11-7 2-17-3-8 1-7 2h-5l1-2 9-2 7-5 5-8 1-8v-2l10-4 3-3h2l2-5 5-8 9-16 2-5h2l1-4 10-21h2l2-7h-4l1-3 9-4-9 2-8 4-69 1-39 2-41 4-18 2 2-3 14-5 38-6 52-4 19-1z" fill="#CFD0D2"/>
<path transform="translate(696,397)" d="m0 0h34l11 2-4 6-3 5h-2v-4h-11v1h9l1 6h-14l-4-1-2-7h-8l-3 5h-4v5h37l1 6h2l4 6 7 2 9-1 4-1 1-3 3-1 3-9v-7l-5-4-3-3 3-1 1-2 4 1h84l-3 3-5 4-7 10-10 15-3 4-1-1h-26l2-2 5-2 1-2-12 5h-1l-1-5v1 4l-19 1 1-2-6 1-2 1h-30l-4-8h-9l-6 5-11 1h-8l-1 2h-2v-16z" fill="#131316"/>
<path transform="translate(1307,560)" d="m0 0 1 2 1 6-2 4h-3v2l-14 4-41 9-23 5-13 2-58 12h-7v2l-16 2-8 2h-5l-1 1-19 3-10 4-4 2-5 2v2l-5 2v2l-4 3-10 4-9 3-16 4-22 3-36 4-28 2h-39l-39-1-21-1-29-2-2-1-2 4-5-12h11l30 2 105 4h11l42-4 21-3 20-4 9-4 4-3 2-6 10-13 2-1h8l9-1 6-2 25-4 21-3 36-6 16-3 30-5 9-2 9-1 7-2 11-2 21-2 13-4 5-10z" fill="#2A4CC6"/>
<path transform="translate(976,377)" d="m0 0h12v1l-28 5-26 4h-5v2l-29 4-6-1-37 4-6 3h-84l-4-1v2l-3 1 6 4 2 2v7l-4 10-3 1-3 3-5 2-11-1-5-4-1-4h-2l-2-5h-19l-17-1v-5h4l2-5 1-1h8l2 3v5l18 1-1-6-10 1 1-3h8l3 1v4h2l2-5 4-5-10-2-34-1-2 20-2-1h-7l-3-2v-10l3-9 3 1v2h2l-2-6 2-5 3-3 6 6v2l157-1 35-3 47-5 34-5z" fill="#4D4E51"/>
<path transform="translate(0)" d="m0 0h3l1 895 3 5 3 3h-10z" fill="#111113"/>
<path transform="translate(684,463)" d="m0 0 9 1 28 2 67 3h38l25-2h15l12 14 2 4h2l7 8 3 4-26 6-5 1h-7l-11-11-8-7-9-9-5-3 4 7 3 2v2l-4-2-9-4-21-2-61-2-27-1h-22l-4 2-3 7-1 11-5-1 2-10 3-12 4-6z" fill="#CFD0D2"/>
<path transform="translate(1145,265)" d="m0 0h20l24 2 29 4 7 4 3 3v3l3 1v2l3 1v2l4 2 7 8 9 10 9 12h-3l-6-5-7-9-9-10-3-2 2 6 13 17 4 7-1 2h-3l-4 1v2h-2l-12-35v-2h3v-2l-43-2h-33l-13 2-4 2 9-1h18l3 10v6l-2-3-6 2-2 5-10 3h-3l-2-3v-4l-9 1-8 3-8 1 1-5v-3l1-5h5l1-4 11-7 12-3 2-6 2-2h20l2 1-1-4 26 2 10 1-18-3-3-2-22-1-1-3-28 1-12 2-10 6-7 10-8 16-8 21-4 13-9 1h-9v-2l17-1 2-10 8-21 8-16 7-11 7-6 7-3z" fill="#5B5D62"/>
<path transform="translate(846,566)" d="m0 0 13 1 6 5 3 1 22 1 12 2h10l17-4h28l8 3v8l-4 1-26 2-29 2-9 1-16 1h-18l-27 2-27 1 6-8 8-12 3-5z" fill="#2A4CC6"/>
<path transform="translate(1097,269)" d="m0 0 1 2-13 1 1 8-6 2-9 1-13 5-8 2-6 2-13 2-2 2 5 2-3 8h-2l-2-4-3-2v-2l-9 1-2-1-1 2-4 1-6 1-2 5-1 2-2 15-2 1-5 1-8 3-2 2 1-15 1-3-9 2-5 5-3 4h-2l-2-4-5 1-4 2-5 10h-23l-1 4-5 2-16 1h-11l2-2 15-5 12-2 15-1v-2l9-4 5-2 5-10 3-5 8-4 9-1 2-2 14-3 5-5 4-2 4 1 5 1 7-1 3-1v-2l-4-1 4-3 17-4 3-3 7-2 2-4z" fill="#3A3B41"/>
<path transform="translate(983,385)" d="m0 0 4 2-1 3-16 3-10 8-4 3v-6h-3v7l2 1-5 4-14 2h-14l-6-3-1-1-28 2-10 2 30-3h7l5 3 4 1h11l12-1 11-4 3-2h2l9-8 3 1-3 1-2 7 4-1 8-4 1-2 7-4h2l-1 3-23 14-10 2-21 2-18 2-25 2h-30l-7 4-3-1h2v-2h2l1-5 5-6-13-2-2-1 2-4 5-3 40-6 9-2 13-2h13l1 3-12 3-15 2-10 2-16 4 13-3 11-1 9-2 4 1-4 3-10 2-24 3h9l28-4 8-6 17-3h2v2h-6v2h-2l4 6 3-1 2-2 1 3h2v-2l3-3h-3l1-3 1 1 1-3 6 1 4-1 2-4 17-4z" fill="#18181B"/>
<path transform="translate(1236,528)" d="m0 0h2l4 17 3 10h-138v-5l11-2 24-4 45-9 23-5 6-1h13z" fill="#2E5AF9"/>
<path transform="translate(730,595)" d="m0 0 9 5-4 13-1 4 1 9 6 1 18 4v2l13 1 16 3 25 2 5 11v3l-7-1-1-1h-10l-7-1-9-1-11-2-4-1-20-4h-5v-2l-13-2-7-2v-2h-4v-3h-5l-2-5h-3v-2h-2l-1 2v-3l-5-2-3-3-1-9h2l2-5 3-1 1-2 10-3 8-1z" fill="#CFD0D2"/>
<path transform="translate(1305,561)" d="m0 0v3l-3 7-9 4-12 2-14 1-17 3-3 1-14 2-4 1-28 5-16 3-20 3-27 5-10 1-30 5-5 1-6 1h-7l-5 5-7 9-2 6-5 4-5 2-3-1 6-4 3-6 2-1 2-4 5-5 3-1 2-5 4-5 5-10 17-1 12-1 5-1 12-1 13-2 36-3 17-3 12-2 19-3 17-1 34-1 13-2 7-3 2-5z" fill="#192B6F"/>
<path transform="translate(1308,365)" d="m0 0 2 3 3 10 2 10 2 5h6v1l-22 2h-2l-2-9v9l-17 2h-17l-7-2-13-1-3-1h-28l-3 1-2-17 22-1h22l13-3 3-1 3 6 10 3 2-2 8-2-1-4-1-3 2-2 3 2 2 5v-8l11-1 2 1z" fill="#FDFDFD"/>
<path transform="translate(816,349)" d="m0 0h4v4l25-1h29l42 1 14 1-1 2-28 6-11 3-1 2-13 4h-3v-3l9-4 7-1 2-2 1-2h-29l-2 1-25 2-20 3-11 3-41 4-22 3h-13l-1-2 6-3 16-5 3-1v-4l41-6h4v-2z" fill="#FDFDFD"/>
<path transform="translate(1181,289)" d="m0 0 5 1 45 2 7 24 2 8v6h-11l-5-3-26 2-1-1-1 5-1-2h-2l-1 2-2-6-4-16-5-19z" fill="#52545A"/>
<path transform="translate(1231,280)" d="m0 0 12 1 33 7 11 4 10 9 2 6 4 2 8 16 6 14h-5l2-1-3-1-1-4h-2l-3-5v-2l-3-1-3 1-7-2-19-2-1 2-3 1-11-14-11-13-12-13z" fill="#5B5D62"/>
<path transform="translate(935,273)" d="m0 0h2v2l-6 3 35-4h10v1l-7 1v3h-3v2l-6 4-5 2-5 1-16 6-2 1h12l3 2-7 3h-4v2l-10 4-3 2h-7v2l-10 7-4 2h-8l-7-2v2h-2v2l-4 3-6 2-6 4-6 2-3 3-9 7-6 1-1-2 1-4-5 5-1-3 6-5 5-5 11-10 23-16 11-8 2 1-5 4-13 10-11 9-3 1v2l-6 5-1 2h3l1-3 7-2 16-12 14-10 9-6h3v-2l9-6 1-4h-2v-2l-5 1 1-2h2v-2l13-4z" fill="#86888F"/>
<path transform="translate(1108,446)" d="m0 0h1l2 16 2 35 7-1 4-1 4-2h21v-2l8-3h4l1-4 7-1 6 5 2 3-11 3-18 13-25 4 24-3 16-3 23-3 5-2 24-4 11-1 2-1 10-1 9-2 13-1-1 5-2 4h-25l-60 11-55 8-7 2-5-1v-12l1-16h1l1 11 1-1v-29l-1-14z" fill="#8D8F95"/>
<path transform="translate(1255,470)" d="m0 0 1 2-3 3 13-3-2 10-4 7-13 3-9 2-10 1-2 1-17 2-18 3-5 2-28 4-17 3-15 2h-8v-1l30-5 18-13 7-2h4v-2l27-7h3v-7h3v5l18-4 16-4z" fill="#151618"/>
<path transform="translate(1e3 271)" d="m0 0h10v1l-15 2-2 4-3 3h-3v2l-10 3-7 3-6 2h-4v2l-2 1-2 7-5 5-18 6-5 3-4 1-10 5-7 3-15 6-10 5-9 3v2h-4l-2-4-5 2-3 3-4 1h-7l4-4h2l1-3 4-1 1-3 10-4 2-2h3l1-2 6-2v-2h2v-2l7 1h8l10-6 4-2v-2l7-1 7-4 6-1v-2l9-3-1-1h-14l4-3 16-6 7-2 6-3 3-1v-2l3-2-2-2 9-1 1-1z" fill="#6B6D72"/>
<path transform="translate(1271,334)" d="m0 0 3 1-6 4-5 7 3-1h13l-3-6v-2h2l2 7 17-1 3-3v5l5 2 8 4 3 3-3 3-10 2-20 2-35 5-8-2h-34l-3 1-4-10 7-2 39-3 11-2 7-6 3-5z" fill="#FBFBFB"/>
<path transform="translate(817,517)" d="m0 0h13l3 2v2l4 2 13 13h50l34-3 8-4 4-4 2 1-3 4-1 8-7 4-14 2-51 2h-26l-19-3-4-5-3-7v-4h-2l-2-5z" fill="#CECFD1"/>
<path transform="translate(1094,259)" d="m0 0 25 1-3 3-13 4-6 3-69 1-39 2-41 4-18 2 2-3 14-5 38-6 52-4 19-1z" fill="#D1D2D4"/>
<path transform="translate(1168,382)" d="m0 0h10v2l9 3 3 2h3l1-2 7-2 4-2 1 3v9l-1-2-10 1-1 1-19 2h-8l-9 2-17 1-13 3-19 2-1 7h-1l-3-22 1-4v2l5-1h18l26-2 6-2z" fill="#FCFCFC"/>
<path transform="translate(965,575)" d="m0 0h1l2 12v7l-21 1-29 2-44 1-26-1-43-1v-2l4-2 32-1 23-2h17l16-1 38-3 29-2z" fill="#192B70"/>
<path transform="translate(1028,270)" d="m0 0h42v1h-23l-1 4-2 2h-6l-1 3-5 2-16 4-1 1 3 1v2l-3 2-11 1-2-2-6 1-5 5-9 3-14 4-5 1-7 3 4-14 1-2 2 1v-2l16-5 6-3h5v-2h3l1-3 3-3v-2l16-2z" fill="#54565C"/>
<path transform="translate(1069,375)" d="m0 0 5 2 1 8-6 5-15 4-13 6-3 3h-2l-1 3-6 4-1 7 6 1v1l-32 4h-5v-5l8-7 5-3 6-2v-2l5-3 8-8 6-4 2-7v-4l16-2z" fill="#FEFEFE"/>
<path transform="translate(684,463)" d="m0 0 9 1 28 2 67 3h48v1l-15 2 1 5 4 5 2 1v2l-4-2-9-4-21-2-61-2-27-1h-22l-4 2-3 7-1 11-5-1 2-10 3-12 4-6z" fill="#CECFD1"/>
<path transform="translate(241,168)" d="m0 0h10v14l5-3h8l6 3 4 7 1 4v7l-3 9-6 5-2 1h-8l-6-4v3h-9z" fill="#18191B"/>
<path transform="translate(831,543)" d="m0 0 10 1 5 1h26l30-1h28l2 2 36 4h21l4 7-3 6-36-4-12-3-8-3-69-1-17-1-12-4z" fill="#5D5F64"/>
<path transform="translate(79,371)" d="m0 0h9l4 3 1-2h9v47h-9l-1-15-5 3h-8l-6-4-4-7v-14l5-8z" fill="#131316"/>
<path transform="translate(1145,265)" d="m0 0h20l24 2 29 4 7 4 3 3v3l3 1v2l3 1v2l4 2 7 8 9 10 9 12h-3l-6-5-7-9-9-10-3-2 2 6 13 17 4 7-1 2h-3l-4 1v2h-2l-12-35v-2h3v-2l-43-2-9-1-3-9 34 1h9l-2-2-13-3-15-2-22-1-1-3-28 1-12 2-10 6-7 10-8 16-8 21-4 13-9 1h-9v-2l17-1 2-10 8-21 8-16 7-11 7-6 7-3z" fill="#6A6C71"/>
<path transform="translate(406,360)" d="m0 0h9v46h-9l-1-2-5 3h-8l-6-4-4-8v-12l4-8 6-4h9l4 3z" fill="#131315"/>
<path transform="translate(189,168)" d="m0 0h9v46h-9l-1-2-5 3h-8l-6-4-4-7v-12l3-8 5-4 2-1h9l4 3z" fill="#131315"/>
<path transform="translate(846,566)" d="m0 0 13 1 6 5 3 1 22 1 12 2 1 2-10 4-31 3-13 1-19 1-12 1-2-1 1-5 6-9 3-5z" fill="#2E5AF9"/>
<path transform="translate(289,179)" d="m0 0h14l6 4 4 6 1 4v8l-4 9-5 4-3 1h-12l-6-4-4-5-1-3v-13l4-7z" fill="#161618"/>
<path transform="translate(439,179)" d="m0 0h13l6 4 3 3 2 5v12l-5 8-6 4h-12l-6-3-4-5-2-5v-10l4-8 5-4z" fill="#151618"/>
<path transform="translate(328,179)" d="m0 0h14l6 4 4 6 1 3v10l-4 8-5 4-3 1h-11l-6-3-4-5-2-5v-11l3-6z" fill="#161618"/>
<path transform="translate(1238,528)" d="m0 0 2 1 5 19 3 13h-40l-32-1h-11l-8 1h-53l1-2 1-12 16-1 12-2 4-2h5l1-1h13v1l-31 6-19 2v5l4-1h133l-4-12z" fill="#182A6E"/>
<path transform="translate(684,473)" d="m0 0h22l51 2 37 1 21 2 10 5 3 2v-2l-4-2-4-6 1-2 8 6 12 12 8 7 5 5 6 1v1l-6 1h-8l-10-10-11-8v-2l-4-1-7-2-46-3-72-3-12 1-4 8-2 9-6 1-3 10 4 1-2 7-5-1-1 3v-9l1-3-2-3 1-6 2-4h2l1-3h2v5h3l1-10 4-8z" fill="#6B6D72"/>
<path transform="translate(739,600)" d="m0 0 6 1v6h-2v6l2 1 3 3 5 3 13 3 11 2 20 2 12 1 4 9-1 3-24-2-17-3-12-2-5-2-13-3-6-2-2-9v-4h2l2-10z" fill="#6A6C71"/>
<path transform="translate(2)" d="m0 0h1l1 895 3 5 3 3h-8z" fill="#434446"/>
<path transform="translate(1033,363)" d="m0 0h7l2 1v3l-34 6-36 6-34 5-67 7-15 1h-157l1-2h65l47-1h34v-2l8-1 29 1 35-5 31-3 6-1 16-2 8-2 7-1 4-2 7-2 10-1 2 1v-2z" fill="#F0F1F1"/>
<path transform="translate(863,420)" d="m0 0h15l5 1-1 2-8-1 3 1 15 4 17 4 3 1 4-1 18 2v1l-49 4-42 3-6 1 2-4 8-8 14-9z" fill="#FBFBFB"/>
<path transform="translate(747,401)" d="m0 0h13l6 4 2 2v7l-4 10-3 1-3 3-5 2-11-1-5-4-1-4h-2l-2-5h-19l-17-1v-5h4l2-5 1-1h8l2 3v5l18 1-1-6-10 1 1-3h8l3 1 2 7h2l3 9 3 3h4l-1-4v-8l-5-1-3-4 6-6z" fill="#AAABAF"/>
<path transform="translate(217,275)" d="m0 0h13l6 4 2 3v26h2v2h-10l-1-3-7 4h-8l-6-5-1-7 3-6 4-3 14-2v-5l-9 1-1 3h-9l1-7 5-4z" fill="#171719"/>
<path transform="translate(114,467)" d="m0 0h12l6 3 3 5v25h2v2h-11v-3l-6 4h-9l-6-5-1-2 1-9 6-5 14-2-2-5h-6l-2 4h-9l1-7 5-4z" fill="#18181A"/>
<path transform="translate(306,275)" d="m0 0h12l6 3 3 5 1 27h-10v-3l-6 4h-9l-6-5-1-2 1-9 6-5 14-2-2-5h-6l-2 4h-9l1-7 5-4z" fill="#18181A"/>
<path transform="translate(79,467)" d="m0 0h11l7 4 4 8v9h-23l2 5 1 1h8l2-2h9l-1 5-6 5-3 1h-10l-7-4-4-5-1-5v-8l3-8 6-5z" fill="#1A1A1C"/>
<path transform="translate(317,371)" d="m0 0h12l6 3 2 3 1 26 1 3h-10v-3l-7 4h-8l-5-3-2-4v-7l5-6 6-2 9-2v-3l-6-1-4 4h-9l1-6 5-5z" fill="#151517"/>
<path transform="translate(104,275)" d="m0 0h11l5 3 5 6 1 4v7l-1 1h-22l2 5 1 1h8l2-2h9l-1 4-5 5-4 2h-10l-6-3-4-5-2-5v-10l3-7 6-5z" fill="#191A1C"/>
<path transform="translate(202,360)" d="m0 0h10l1 22 9-10h11l-4 6-6 6 2 5 9 16v1h-11l-7-12v-2l-3 2-1 12h-10z" fill="#1C1C1E"/>
<path transform="translate(1182,352)" d="m0 0h13v1l-45 4h9l21-2h17l3 6v3l-4 1h-28l-19 1h-26l-1 2h-7l-4-3-2 1v-8h10v-2h19l19-2z" fill="#F8F8F8"/>
<path transform="translate(1097,269)" d="m0 0 1 2-13 1 1 8-6 2-9 1-13 5-8 2-6 2-13 2-2 2 5 2-3 8h-2l-2-4-3-2v-2l-9 1-2-1-1 2-4 1-6 1-1 3-1-2-12-2 3-2 7-1 12-3 2-1v3h3v-3l7-2 1-4 7-3 22-5 6-3 5-5v-1l7-1z" fill="#3A3B41"/>
<path transform="translate(1166,263)" d="m0 0h15l32 4 34 6 12 3 11 2 24 8 2 4v9l-4-2-9-6-25-6-28-5-9-7-15-3-26-3-38-2v-1z" fill="#F4F4F5"/>
<path transform="translate(72,168)" d="m0 0h33v8h-23v10h20v9h-20v19h-10z" fill="#18181B"/>
<path transform="translate(1173,308)" d="m0 0h1l2 11v8h-3l-2 9-3-3-2-5h-1l1 5 1 2v9h-4v-3l-11 1-2 1h-12l-1-3-2 2-26 2v-2l4-2 13-3h14v1l16-1 4-2h4l-1-3-7-2-34 3h-5v-8l1-1 17 1 12 2h11l-2-2-14-4-8-1v-1h7v-3l7-1 2 2v3h13l1-5h2l3 3-1-4 5-2z" fill="#424346"/>
<path transform="translate(989,396)" d="m0 0h2l-1 3-23 14-10 2-21 2-18 2-25 2h-15l-14-1-1-4 5-6 5-2-1 2 5 2 30-3h7l5 3 4 1h11l12-1 11-4 3-2h2l9-8 3 1-3 1-2 7 4-1 8-4 1-2z" fill="#202124"/>
<path transform="translate(359,168)" d="m0 0h9l1 22 9-10h12l-6 7-4 5 1 5 9 15v2h-11l-7-12v-2h-2l-1 3-1 11h-9z" fill="#121215"/>
<path transform="translate(914,280)" d="m0 0 3 1-1 1h3v2l3-1v5l-9 6h-2v2l-8 4-11 8-19 14-5 4-6 1-1 2h-3l2-4 3-3h2v-2l14-11 13-10 2-2-19 13-16 12-11 10h-2l-1 3-11 8-8 4v-2h-2v2l-4 1-2-5 3-2 10 1 26-22 14-11 16-12 15-10z" fill="#CDCED0"/>
<path transform="translate(982,495)" d="m0 0h12l-4 12h-2l-1 7h-2l-2 9-1 2-14 2-1-4-3-3v-3l-4-2-1-18z" fill="#CECFD1"/>
<path transform="translate(1047,271)" d="m0 0h16v3l-6 5-10 3-17 4-4 2h-3l-1 5-7 1v3l-6-1-11 3-7 1 9 3-1 6-8 2-3 1v2l-5 1v-11l-9 3-6 4-7-1v2l-7 2 2-6 5-3 6-2 7-1 2-2 14-3 5-5 4-2 4 1 5 1 7-1 3-1v-2l-4-1 4-3 17-4 3-3 7-2z" fill="#444547"/>
<path transform="translate(980,528)" d="m0 0 2 2 1 14h2l3 5-1 2h-20l-17-2-18-2-9-3v-1l14-2 5-3 2 1 3-1 4-2 7-1 7-4z" fill="#6A6C71"/>
<path transform="translate(253,372)" d="m0 0h10l6 19v3h2l1-7 4-14 1-1h9l-2 9-11 31-4 6-3 2h-9v-8l6-1 1-5-11-31z" fill="#171719"/>
<path transform="translate(210,468)" d="m0 0h10l3 7 4 14 3-8 4-13h10l-12 36-5 10-4 2h-8v-8l6-2-1-8-10-28z" fill="#161618"/>
<path transform="translate(1059,425)" d="m0 0h17l8 3 7 8 2 5h-2l-5-5h-4-17l-13 2-12 4-9 6-4 1v3l-2 2v-2l-5-2h-3v-3l7-8 6-5 11-5 11-3z" fill="#515258"/>
<path transform="translate(149,467)" d="m0 0h13l6 3 3 8h-10l-2-3h-7l-1 4 11 2 6 3 3 3 1 7-4 6-5 3h-14l-6-4-3-5v-3h10l1 3 2 1h9v-4l-13-3-6-4-2-3v-6l6-7z" fill="#161618"/>
<path transform="translate(1293,305)" d="m0 0 5 1 9 15 3 6 3 3 4 9h-5l2-1-3-1-1-4h-2l-3-5v-2l-3-1-3 1-7-2-19-2-1 2-3 1-11-14v-3h18l2-1z" fill="#3A3B41"/>
<path transform="translate(1241,545)" d="m0 0 2 3 2 7h-138v-5l11-2 13-1-4 2h41l8-1h62l3 1z" fill="#2A4CC6"/>
<path transform="translate(146,275)" d="m0 0h9l5 3 3 5v27h-10l-1-25-1-1h-7l-2 3-1 23h-9v-34h8l1 3z" fill="#171719"/>
<path transform="translate(110,372)" d="m0 0h9l1 24 2 2h6l2-2 1-24h10v34h-9l-1-3-3 3-3 1h-7l-6-4-2-4z" fill="#151518"/>
<path transform="translate(142,179)" d="m0 0h10l4 2 3 5v28h-9l-1-24-2-2h-7l-2 5-1 21h-9v-34h9l1 2z" fill="#131315"/>
<path transform="translate(359,371)" d="m0 0h10l6 5 1 2v28h-9l-1-24-2-2h-7l-2 4-1 22h-9v-34h9l1 2z" fill="#121214"/>
<path transform="translate(689,427)" d="m0 0 2 3 2 16-1 2 1 9 2 4v3h12l13 1v1h-17l-13-2-9 1-4 6-4 16-4 4h-2l-1-9 2-10v-21l-1-9-1-5 11 6 4 7 7 4v-24z" fill="#191A1C"/>
<path transform="translate(960,382)" d="m0 0h9l-4 2-32 6-36 5-9 2-33 5-10 5h-2l-1 4-2 4-1 8-1 4h-2l-1 9-3 6-10 2h-2l1-6 9-16 7-10 8-10 12-7 37-4 6 1 23-3h6v-2z" fill="#C1C2C5"/>
<path transform="translate(1191,306)" d="m0 0 2 2 3 7 2 1 10-1 2-1 15-1 3 2h7l3 1 2 8v6h-11l-5-3-26 2-1-1-1 5-1-2h-2l-1 2-2-6-3-14 4 1z" fill="#393A40"/>
<path transform="translate(1253,490)" d="m0 0h7l-1 5-2 4h-25l-60 11-55 8-7 2-5-1v-12h1l1 9 4-2 5 1 7-2 51-8h6v-2l9-2 8-2 18-3 11-1 2-1 10-1 9-2z" fill="#525358"/>
<path transform="translate(272,275)" d="m0 0h12l6 4 3 6v3h-10l-2-4h-6l-2 1-1 3v10l2 4h7l2-5h10l-1 5-4 6-6 3h-10l-6-3-4-7-1-3v-9l3-8 6-5z" fill="#161719"/>
<path transform="translate(176,371)" d="m0 0h11l6 3 4 8v2h-10l-2-4h-7l-2 3v12l2 3h7l2-5h9l1 3-5 8-6 3h-11l-6-4-4-8v-11l3-7 6-5z" fill="#161619"/>
<path transform="translate(1258,507)" d="m0 0 5 3 1 6-6 1-28 5h-5l-1 2h-11v2l-8 1-11 2-19 4-39 7h-29v-12l3-1 9 5 10 4h8l26-5 1-1 19-3 25-5 27-5 20-4h5z" fill="#4B4D52"/>
<path transform="translate(939,507)" d="m0 0h7l1 7 1 2h-10l-26 2-51 2 4 4 55 2v1l-38 1h-29l-3-1v-2h3v-6h3v-2l3-1 45-2 8-2v-2h10l2-1z" fill="#404146"/>
<path transform="translate(983,385)" d="m0 0 4 2-1 3-16 3-10 8-4 3v-6h-3v7l2 1-5 4-14 2h-14l-6-3-1-1-19 1 2-3 16-2 8-6 17-3h2v2h-6v2h-2l4 6 3-1 2-2 1 3h2v-2l3-3h-3l1-3 1 1 1-3 6 1 4-1 2-4 17-4z" fill="#171719"/>
<path transform="translate(1139,269)" d="m0 0h20l-2 4-12 2-14 5-6 5-7 10-8 17-3 8 1 2-9-1 3-10 11-23 7-9 7-6 7-3z" fill="#111113"/>
<path transform="translate(1083,337)" d="m0 0h7l-1 5-7 16-3 11-7 2-17-3-8 1-7 2h-5l1-2 9-2 13-9 11-3 6-4 4-6z" fill="#FCFCFC"/>
<path transform="translate(1264,472)" d="m0 0h2l-2 10-4 7-33 5h-7l3-5 6-7 15-5 16-4z" fill="#5E6065"/>
<path transform="translate(172,266)" d="m0 0h9v10h6v6l-1 1h-5v20h5l1 1v6h-12l-3-3v-24h-5v-7h5z" fill="#171719"/>
<path transform="translate(684,473)" d="m0 0h22l51 2 37 1 21 2 7 3-3 1-15-3-15-1-93-1-12 1-4 8-2 9-6 1-3 10 4 1-2 7-5-1-1 3v-9l1-3-2-3 1-6 2-4h2l1-3h2v5h3l1-10 4-8z" fill="#85878E"/>
<path transform="translate(1131,256)" d="m0 0h22l48 6 41 7 19 5 5 2v1h-7l-22-5-38-6-33-4-28-1-20 2v-2l10-4z" fill="#494A50"/>
<path transform="translate(848,404)" d="m0 0 2 1-2 3 13 2 2 1-2 4-13 12-6 5h-2l-2 4-10 14-9-1v3l-6 2 2-6 5-9 1 2-1 3 10-2h2l3-10 1-5h2l1-13 4-7z" fill="#54565C"/>
<path transform="translate(1100,385)" d="m0 0h1l3 18v10l-21 3h-12l1-4 4-5 6-5 4-2h3l1-3 6-3 2-3 1 1z" fill="#FEFEFE"/>
<path transform="translate(745,601)" d="m0 0 3 1-1 5 2 6 20 3 2 1 1-2v3h12l18 3h3l3 4-1 4-20-2-17-2-12-3-7-2-7-5-1-2v-6h2l-1-3z" fill="#3A3B41"/>
<path transform="translate(1280,291)" d="m0 0 7 1 10 9 2 6 4 2 8 16-1 3-11-19-2-3-19 2-6 1h-14l-3-3-2-5 11-2 6 1h3l1-3 5-1 1-2z" fill="#52545B"/>
<path transform="translate(938,515)" d="m0 0h8l1 2-2 3-12 2-27 2-24 1h-17l-4-3v-2l3-1 48-2z" fill="#F4F4F5"/>
<path transform="translate(238,360)" d="m0 0h10v46h-10z" fill="#202123"/>
<path transform="translate(949,438)" d="m0 0 4 4 3 12 3 26v15h-10l-1-20-2-16v-5l3-1 1-4v-7z" fill="#6E7076"/>
<path transform="translate(1187,291)" d="m0 0h17l27 1 2 6-1 4-3-3-4 2-7 2-26 1-2-8h-2z" fill="#696B70"/>
<path transform="translate(1013,271)" d="m0 0h7v3l-9 5h-3v3l-11 2-9 9-10 2-10 1-5 2-4 2 1-8 3 1v-2l16-5 6-3h5v-2h3l1-3 3-3v-2z" fill="#5C5E63"/>
<path transform="translate(976,382)" d="m0 0h6l2 2-13 4-9 1-2 1-13 2-4 1h-8v2l4 1-17 3-8 6-16 2-12 2h-10l1-2 31-4 6-3-10 1-2 1-16 2-10 2 4-3 14-3 10-2 25-4 1-3h-6v-1l26-4 20-3z" fill="#19191B"/>
<path transform="translate(348,275)" d="m0 0h6v9l-8 2-1 2-1 22h-10v-34h9l1 3z" fill="#171719"/>
<path transform="translate(196,456)" d="m0 0h9v46h-9z" fill="#111113"/>
<path transform="translate(692,384)" d="m0 0 2 2 3 5v2l3 1 34 1 13 1-2 2h-15l-34-1-2 20-2-1h-7l-3-2v-10l3-9 3 1v2h2l-2-6 2-5z" fill="#6E7076"/>
<path transform="translate(85,275)" d="m0 0h6v9l-9 3-1 3-1 20h-9v-34h9l1 3z" fill="#121214"/>
<path transform="translate(878,466)" d="m0 0h15l-4 1 7 11 6 8v4h-2l-1 7h-2l-7-8-18-18-1-3h7z" fill="#3A3B41"/>
<path transform="translate(483,179)" d="m0 0h6v9l-9 3-1 3-1 20h-9v-34h9l1 3z" fill="#111113"/>
<path transform="translate(707,489)" d="m0 0h13l29 2v1l-13 2-10 5-5 2v-2l-7 2 10 2-1 3h-11l-2-1v-3h-2l-1 4-1-11-27-2 1-2 22 1 4 1z" fill="#393A40"/>
<path transform="translate(949,312)" d="m0 0h5l-3 9-3 3-10 4h-3l1 3-24 2-11 3-3-1 2-2 3-2 8-1v-2l15-6 8-3 7-3h3l1-2z" fill="#53555B"/>
<path transform="translate(955,344)" d="m0 0h54l39 1v1l-33 1v1l-49 5-5-1v-1l10-2h-42v-1l26-3z" fill="#7A7C82"/>
<path transform="translate(739,600)" d="m0 0 3 1-2 6-1 1-1 13 3 3 7 1 5 2 3-1 4 3h6l5 2 18 1 7 2 14 2v-2h2l1 5-5 1-20-2-17-3-12-2-5-2-13-3-6-2-2-9v-4h2l2-10z" fill="#85878E"/>
<path transform="translate(701,442)" d="m0 0h7l3 1 1 8 4-2 7-6 8 1 3 9 25-1 7-4 4-1v2l-13 7h-23l-19-2h-18l-3-1v-3h11v2l5-1-2-5-7-2z" fill="#1B1B1D"/>
<path transform="translate(997,387)" d="m0 0 2 1-5 3-6 2-3 5-1-2 2-4-13 3-2 4-10 9h-3l-9 4-3 1-12 1h-11l-7-3-2-1-18 1-19 2h-5l4-2 11-2 28-2 2 2 5 2h14l14-2 4-3-1-1v-7h3l1 5 10-9 6-3 13-2 6-1z" fill="#C3C4C7"/>
<path transform="translate(684,463)" d="m0 0 9 1 28 2 90 4 4 2h-20l-51-2h-24v-2l-16 1-1 1h-19l-2-1v2h-3l-2 4 1-8 3-3z" fill="#F0F0F1"/>
<path transform="translate(1275,332)" d="m0 0 19 2 16 3 1 2 8 3 7 11 1 3h-8l-3 1-3-5-10-5-1-2-3 1v-6l-24-4v-3z" fill="#D2D3D5"/>
<path transform="translate(825,520)" d="m0 0 4 1 9 9 10 7-1 4-1 1h-15l-4 1-4-5-3-9 1-3h2l1-3 2-1z" fill="#6B6D72"/>
<path transform="translate(849,450)" d="m0 0h32l-3 3-9 4-24 3-5 1h-9l-2-6 5-3z" fill="#65676C"/>
<path transform="translate(1033,363)" d="m0 0h7l2 1v3l-34 6-36 6-21 2-16 2h-6l1-2 19-2 6-1 16-2 8-2 7-1 4-2 7-2 10-1 2 1v-2z" fill="#F9F9F9"/>
<path transform="translate(1155,497)" d="m0 0 2 1 1 2-10 7-25 4-1 2h-11v-8l11-3 12-2 2-1 16-1z" fill="#56585D"/>
<path transform="translate(1181,289)" d="m0 0 5 1 2 3v3h2l2 8 2-1 25-1 9-3h3l1 3h2l1 7-1-2-6 1-4-1v-2l-18 2-14 1v7l-5-2-5-17z" fill="#5B5D62"/>
<path transform="translate(980,528)" d="m0 0 2 2 2 16h-10l-9-1-10-6 5-5 5-3z" fill="#D0D1D3"/>
<path transform="translate(1073,335)" d="m0 0h2v2h8l-1 5-2 4h-2l-1 4-6 5-10 3-3 1-5 3 2-5 3-6v-7l10-4 3-3h2z" fill="#D0D1D3"/>
<path transform="translate(149,372)" d="m0 0h10v34h-10z" fill="#1E1E20"/>
<path transform="translate(110,180)" d="m0 0h10v34h-10z" fill="#1F1F21"/>
<path transform="translate(1149,268)" d="m0 0h20l2 1 22 1 3 2 18 3 5 1v1h-9l-16-2-14-1-2-1 1 4h-22l-3 2-1-3h-7l-5 1-1 2h-5v2l-5 1-1 2v-3l4-3 12-4 12-2 2-3h-10z" fill="#44464A"/>
<path transform="translate(1253,490)" d="m0 0h7l-1 5-2 4h-25l-11 2h-15l-19 3h-7v-1l9-2 8-2 18-3 11-1 2-1 10-1 9-2z" fill="#6B6D73"/>
<path transform="translate(1235,287)" d="m0 0 15 15 10 13 3 5-5-2-7-8-9-11-7-6 2 6 13 17 4 7-1 2h-3l-4 1v2h-2l-12-35v-2h3v-2h-6v-1z" fill="#515358"/>
<path transform="translate(721,424)" d="m0 0h9l4 8h30l6-1-3 3-2 1h-50l-15-1-5-1 1-3h14l1-3v3l7-3z" fill="#5F6066"/>
<path transform="translate(1108,527)" d="m0 0 6 2 5 3 10 4h8l26-5 1-1h6l-4 1v2l9-1v1l-39 7h-29v-12z" fill="#404146"/>
<path transform="translate(1172,289)" d="m0 0h7l6 19 5 25v5l-1-4h-2v-2l-3 1-3-5-7-30z" fill="#4F5157"/>
<path transform="translate(846,401)" d="m0 0 3 2-4 4h-2l-1 4-2 4-1 8-1 4h-2l-1 9-3 6-10 2h-2l1-6 9-16 7-10 8-10z" fill="#878990"/>
<path transform="translate(178,468)" d="m0 0h9v34h-9z" fill="#111113"/>
<path transform="translate(1048,493)" d="m0 0h8l9 4 2 4-3 1h-8v-7l-10 2-3 11 2 11-1 7 9-4 5-1-3 3-8 3h-2v2h-2l-3-25-1-2-3 6-3 14h-3l-1 3 2 9-3-4v-2h-2l1-7 7-14 2-6 8-6z" fill="#57585C"/>
<path transform="translate(1263,332)" d="m0 0h11l-4 2-3 2-4 7-7 6-11 2-39 3-9-1-1-2 49-4 8-1 2-4z" fill="#7D7E83"/>
<path transform="translate(1231,280)" d="m0 0 12 1 25 5-3 1-1 3-12 5-2 2 1 3-4-2-12-13z" fill="#67696E"/>
<path transform="translate(1342,454)" d="m0 0h2l1 8-2 11-5 9-6 9h-1l1-8v-12l-1-13 10-3z" fill="#CACBCD"/>
<path transform="translate(985,383)" d="m0 0 5 1v4l2 1h-5v-2l-4-1-3 2-6 1-9 2h-5l-2 5-7 1-3-2-1 4-1-1-1 2h3l-1 3h-2v2h-2l-1 3-1-3-4 1-4-5v-2h2v-2h6v-2h-6v-2l12-2 13-2 2-1 12-2z" fill="#53555A"/>
<path transform="translate(889,467)" d="m0 0 5 1 5 6v2h2l4 6 1 10h2v2l3 1v-2l4 1-3 2 11-1h21l1 2-19 2h-25l1-3-3-1 1-5h2l-3-7-10-14z" fill="#7D7E84"/>
<path transform="translate(252,456)" d="m0 0h10v17l-2 16h-6l-2-15z" fill="#161618"/>
<path transform="translate(292,187)" d="m0 0h8l4 5v10l-4 5h-8l-4-6v-7l2-5z" fill="#F8F8F8"/>
<path transform="translate(1301,410)" d="m0 0h13l5 4 4 7-1 2-6-4-9-1-11 3-10 8h-3l2-5 7-8 2-2 1-2z" fill="#64666B"/>
<path transform="translate(441,187)" d="m0 0h9l3 4v12l-4 4h-7l-3-3-1-2v-11z" fill="#F8F8F9"/>
<path transform="translate(331,187)" d="m0 0h8l3 3 1 2v10l-4 5h-7l-4-4-1-7 2-7z" fill="#FAFAFA"/>
<path transform="translate(703,404)" d="m0 0h8l2 3v5l18 1-1-6-10 1 1-3h8l3 1 3 7v8l-2-4-1-1h-19l-17-1v-5h4l2-5z" fill="#64666C"/>
<path transform="translate(676,507)" d="m0 0h8l1 2-2 1-1 4-1 15-2 2-6 2-1 5-5-1-6-6v-5h2v2l6 2 4-1-1-1 1-14z" fill="#CFD0D2"/>
<path transform="translate(743,603)" d="m0 0 2 1v3h-2v6l2 1 3 3 5 3 13 3 11 2 20 2 12 1 1 4h-12l-9-2-17-2-20-4-9-2-1-1v-7l-2-1 1-5z" fill="#55575D"/>
<path transform="translate(949,322)" d="m0 0h1l-1 7-2 4h-23l-1 4-5 2-16 1h-11l2-2 15-5 12-2 15-1v-2l9-4z" fill="#3B3C41"/>
<path transform="translate(1142,267)" d="m0 0h28l-1 2h-20l-15 2-10 5-8 9-11 21-6 15h4l-3 11-1 3h-2v-3h-2l-1 2 1-8 8-22 8-16 7-11 8-6 9-3z" fill="#DFE0E1"/>
<path transform="translate(1164,334)" d="m0 0 3 1v9h-4v-3l-11 1-2 1h-12l-1-3-2 2-26 2v-2l4-2 13-3h14v1l16-1z" fill="#7B7D82"/>
<path transform="translate(1048,465)" d="m0 0 3 3v2l-3 1h16l3 3-1 1-13 1-13 6-4 1-2 4-2 1 2-5 3-5-5-2-1-2h3l-1-2h2l1-2h2l1-2 8-2z" fill="#38393E"/>
<path transform="translate(838,326)" d="m0 0h9l-1 4-11 10-4 3-12-1v-5l8-6z" fill="#191A1E"/>
<path transform="translate(964,413)" d="m0 0 10 1v2l-6 2v2h-2v2l-9 7-3 3h-2l-2 5-9-3 2-4 10-8 6-5-4-2z" fill="#FBFBFB"/>
<path transform="translate(1296,446)" d="m0 0 7 2 3 4v4l5 4 1 7-5-3-4-5-3-3-5 2-8 8-1-3 1-4-3-4 3-1-1-3h3v-2z" fill="#3A3B41"/>
<path transform="translate(843,416)" d="m0 0h5l1 9-4 5-5 2-2 4-10 14-9-1v3l-6 2 2-6 5-9 1 2-1 3 10-2h2l3-10 1-5h1v6h2v-6l3-10z" fill="#606267"/>
<path transform="translate(179,187)" d="m0 0 7 1 3 4v10l-4 5h-7l-4-6v-7l3-6z" fill="#F6F7F7"/>
<path transform="translate(255,187)" d="m0 0 7 1 3 4v9l-3 5-1 1h-6l-4-4-1-2v-8l3-5z" fill="#F6F6F6"/>
<path transform="translate(1274,332)" d="m0 0 3 3 22 4-2 5h-17l-2-4v-3h-2l3 6v2l-16 1 2-4 5-6-4 1 4-4z" fill="#525358"/>
<path transform="translate(1139,269)" d="m0 0h5l1 3-7-1v2l-12 6-8 9-13 28-2 5h-4l3-10 11-23 7-9 7-6 7-3z" fill="#36363A"/>
<path transform="translate(396,379)" d="m0 0 7 1 3 4v10l-4 5h-7l-3-4-1-7 2-7z" fill="#F9F9F9"/>
<path transform="translate(724,477)" d="m0 0h65l22 2 13 3 3 5-2 1v-2l-4-1-7-2-46-3-44-2z" fill="#57595D"/>
<path transform="translate(83,379)" d="m0 0 7 1 3 4v9l-3 5-1 1h-6l-4-4-1-7 2-7z" fill="#F8F9F9"/>
<path transform="translate(1293,305)" d="m0 0 5 1 3 6-5 2-4-1h-25l-2 5-8-8 1-2h18l2-1z" fill="#434447"/>
<path transform="translate(1294,468)" d="m0 0h8l4 4v2h-7v-4l-3 11-2 1 1-11-2 4v7l1 8 6-2-4 4h-3v2h-2v2h2v2h-3v2h2l3 5v7l1 3-4-1-1-6h-3v-2l4 1v-2h-3l-1-6 2-6v-17l-2 8-1 6-3-1 1-7 3-9h2l2-4z" fill="#4F5055"/>
<path transform="translate(851,467)" d="m0 0h15l-1 4-25 4-10 2h-4l-5-3-1-3 16-2 3-1z" fill="#F8F8F8"/>
<path transform="translate(687,430)" d="m0 0 2 2v23l-8-4-4-5-1-3-9-5v-5h4l5-1v2h2v3l6 1 1 3-1 2h2z" fill="#D2D3D5"/>
<path transform="translate(845,336)" d="m0 0 2 1-2 5h2v2h-5v2h12v1h-9v2l16 1v1l-17 1h-23l1-3 15-9 5-1z" fill="#6C6E73"/>
<path transform="translate(1237,479)" d="m0 0h2l-2 4-4 5h6l2-2 6-1h3v3l2-3 6-2 3 3-1 3-33 5h-7l3-5 6-7z" fill="#52545A"/>
<path transform="translate(734,395)" d="m0 0h15l-1 4h7v-1h7l1 2-20 3-5 5 2 4 5 1 2 12 1 2-6-1-5-6-1-7h-2l-1-3 4-6 3-4-5-1v-1l10-1-11-1z" fill="#27282B"/>
<path transform="translate(689,427)" d="m0 0 2 3 2 16-1 2 1 9 2 4v3h12l13 1v1h-17l-13-2-9 1-2 1 1-8 2-1 2-4 4 1v-24z" fill="#5A5C61"/>
<path transform="translate(1173,308)" d="m0 0h1l2 11v8h-3l-2 9-3-3-2-5-2-2h-3l-8-4 1-2h9l1-5h2l3 3-1-4 5-2z" fill="#3A3B40"/>
<path transform="translate(1145,265)" d="m0 0h20l8 1v1l-31 1-12 2-10 6-7 10-8 16-8 21-4 13-9 1h-9v-2l17-1 2-10 8-21 8-16 7-11 7-6 7-3z" fill="#4D4E52"/>
<path transform="translate(1041,347)" d="m0 0h10l-1 2-54 8-14 2h-9l4-2 24-5 29-4z" fill="#717379"/>
<path transform="translate(743,607)" d="m0 0 2 1 2 5 12 5 10 2 4 1 10 1 7 1 5 1 12 2v2l-4 1-16-2-17-2-12-3-7-2-7-5-1-2z" fill="#444547"/>
<path transform="translate(1194,271)" d="m0 0 14 1 13 3 3 3-3 1h-17l-24-2 3 9h-20v-1l17-1-3-7h2l-1-4 26 2 10 1-18-3z" fill="#626469"/>
<path transform="translate(939,507)" d="m0 0h7l1 7 1 2h-10l-9 1h-16v-1h11v-2h-6l-1-2 7-3z" fill="#57595F"/>
<path transform="translate(1059,425)" d="m0 0h17l8 3 7 8 2 5h-2l-5-5-3-1v-2h-22l-17 4-6 1 1-2 10-4 13-3 13-2-16-1z" fill="#5D5F64"/>
<path transform="translate(73,34)" d="m0 0h12l13 7-1 4-4-1v-2l-4 1-1 2h-8l-2-2-4 1-5 1 3-2-4-2 4-1-5-4 6-1z" fill="#3854B8"/>
<path transform="translate(373,603)" d="m0 0 8 1v16l-4 4-7-1-1-3 8 1 1-3h-7l-3-4v-7l2-3z" fill="#37383B"/>
<path transform="translate(950,536)" d="m0 0h7v3l8 5 19 2 1-2v4h-13l-23-1-4-4-3-2z" fill="#85878E"/>
<path transform="translate(1222,313)" d="m0 0 4 1 2 1h7l3 1v4l-6 1-6-2h-11l-9 1-6 2h-3l-2-6h3l10-1 2-1z" fill="#434446"/>
<path transform="translate(683,509)" d="m0 0h2l-2 6-1 14h2v2l4 1-2 1 3 2v2l20 2-3 3h-2l-1 2v-3l-27-2-5-2 1-4 2-2 6-2 1-15z" fill="#717379"/>
<path transform="translate(949,438)" d="m0 0 4 4v27h-2l1 4v20h-1v-6h-2l-3-28v-5l3-1 1-4v-7z" fill="#808289"/>
<path transform="translate(994,346)" d="m0 0h52v1l-25 3-25 4h-6l1-2-7-1v-1l21-2-11-1z" fill="#D0D1D3"/>
<path transform="translate(288,598)" d="m0 0h2l1 6 6-1 4 4v8l-3 3h-10z" fill="#262629"/>
<path transform="translate(1175,276)" d="m0 0h2l4 9-18 1h-11l3-6 1 3 3-3 2-3z" fill="#696B70"/>
<path transform="translate(1166,263)" d="m0 0h15l32 4 6 1-3 1v2l-36-4-38-2v-1z" fill="#EFEFF0"/>
<path transform="translate(1131,256)" d="m0 0h22l34 4v1h-13l-32-2-1 2-23 2v-2l10-4z" fill="#64666B"/>
<path transform="translate(937,553)" d="m0 0 20 2 19 2h12 4l-1 5-3 1-34-4-12-3-5-2z" fill="#414245"/>
<path transform="translate(413,563)" d="m0 0h9l3 2 1 8-4 5-7-1v6h-2z" fill="#393A3E"/>
<path transform="translate(1061,432)" d="m0 0h19l3 2-1 2h-17l-13 2-12 4-9 6-2 1 1-5 5-4 12-5z" fill="#3A3B41"/>
<path transform="translate(154,686)" d="m0 0 5 1 3 3h6l2 7v2h-7l-2-3-3 3h-5l-3-4 1-7z" fill="#4368F2"/>
<path transform="translate(926,534)" d="m0 0h10l-2 2-11 2-24 1-7 1h-42v-2l50-2z" fill="#F2F3F3"/>
<path transform="translate(909,397)" d="m0 0h14l-5 5-4 3-16 2-12 2h-10l1-2 31-4 6-3-10 1-2 1-16 2-10 2 4-3 14-3 10-2z" fill="#77797F"/>
<path transform="translate(398,603)" d="m0 0 5 1 3 4-1 8-2 2h-7l-1-1-1 6h-1v-19z" fill="#333437"/>
<path transform="translate(1057,343)" d="m0 0 3 1h-2l1 7-4 8-5 6-8 4-24 4h-5v7h-1v-6l-15 3h-8l3-2 16-3 34-6 7-3 6-10 1-8h-9v-1z" fill="#38393C"/>
<path transform="translate(938,515)" d="m0 0h8l1 2-2 3-12 2-11 1h-13v-1l7-1v-2l-4-2z" fill="#D0D1D3"/>
<path transform="translate(983,385)" d="m0 0 4 2-1 3-16 3-10 8-4 3v-6h-3v7l-2-1v-6l7-3 2-4 17-4z" fill="#18181A"/>
<path transform="translate(421,603)" d="m0 0 6 1 3 4-1 8-2 2h-7l-3-3v-9z" fill="#F3F3F4"/>
<path transform="translate(923,548)" d="m0 0h8l2 4h-68l-17-1v-1l75-1z" fill="#484A4F"/>
<path transform="translate(323,603)" d="m0 0 6 1 3 4-1 7-2 3h-7l-3-3v-9z" fill="#F3F3F4"/>
<path transform="translate(204,603)" d="m0 0 6 1 3 4-1 7-2 3h-7l-3-3v-9z" fill="#F3F3F4"/>
<path transform="translate(1288,516)" d="m0 0h2v3h2v13l-4 12 5 1 1-2 2 1-2-6 5 3h5l-1 4-5 5h-6l-5-5-3-9h2v2l2-1 1-4v-9l-2-7z" fill="#3A3B40"/>
<path transform="translate(797,446)" d="m0 0h9l-1 4-2 4h-11l-1-2-9 5h-19l-3-2 2-1 21-1 13-6v2h4v-2z" fill="#57585D"/>
<path transform="translate(1313,368)" d="m0 0 6 3v2l3 1 3 9 3 4h-2l-3 3-4 1-3-4-3-13z" fill="#FDFDFD"/>
<path transform="translate(949,525)" d="m0 0 5 1 3 2 1 4 7-4 12-3 4 1-1 3-15 3-10 5h-8z" fill="#5E5F64"/>
<path transform="translate(1173,266)" d="m0 0 16 1 29 4 7 4-1 2-16-4-15-2-22-1-1-3z" fill="#9D9EA2"/>
<path transform="translate(128,603)" d="m0 0 5 1 3 3v7l-3 4h-7l-3-4v-7z" fill="#F3F3F4"/>
<path transform="translate(1228,494)" d="m0 0h10v2l-11 1v3l-13 1h-8l-19 3h-7v-1l9-2 8-2 18-3 11-1z" fill="#707277"/>
<path transform="translate(144,31)" d="m0 0h4v7h5v-7h4v18h-4v-8h-5v8h-4z" fill="#1B1B1D"/>
<path transform="translate(1017,451)" d="m0 0 6 2-2 5-7 11-4 8-3-1-1-6v-3h3l2-5 5-10z" fill="#393A40"/>
<path transform="translate(306,604)" d="m0 0h8l3 5-1 6-2 3h-7l-3-3v-9z" fill="#F2F3F3"/>
<path transform="translate(219,563)" d="m0 0h6l3 3 1 6-3 5-6 1-4-3v-9z" fill="#F6F6F7"/>
<path transform="translate(911,399)" d="m0 0 4 1-4 3-10 2-24 3h9l14-1-4 2-16 2h-9l5-5 15-4 11-1z" fill="#131315"/>
<path transform="translate(1187,374)" d="m0 0 2 1-2 3 3 1-8 2v2l7-1h15v2l-4 3h-6l-1 3-4-1-8-3-2-2v-5z" fill="#414247"/>
<path transform="translate(394,204)" d="m0 0h10v13l-4 6-6 2v-4l4-3 1-4h-5z" fill="#19191B"/>
<path transform="translate(1213,527)" d="m0 0h14l9 1v1l-12 1h-8l-26 5-22 5h-6l4-4 15-1 9-3 13-3z" fill="#132156"/>
<path transform="translate(958,379)" d="m0 0h8v1l-28 4-47 5h-5l4-2 5-2 33-4 1 1 14-1z" fill="#E8E8E9"/>
<path transform="translate(1181,289)" d="m0 0 5 1 2 3v3h2l2 6v13l-5-2-5-17z" fill="#57595E"/>
<path transform="translate(1182,352)" d="m0 0h13v1l-45 4-1 2-9 1h-16l-12-1v-1h7v-2h19l19-2z" fill="#A5A6AA"/>
<path transform="translate(374,288)" d="m0 0h19v8h-19z" fill="#19191B"/>
<path transform="translate(206,204)" d="m0 0h9l1 1v10l-3 7-7 3 1-5 3-3 1-3h-5z" fill="#1E1E21"/>
<path transform="translate(882,485)" d="m0 0 3 1 7 8 7 7-1 2-10 2-10 4v1l21 1v1h-27l1-5 9-4 12-4-5-1 2-2-9-9z" fill="#585A5F"/>
<path transform="translate(983,392)" d="m0 0h3v3l1 3-2 2h-3l-1 3-12 6-3-1 3-2 1-4 3-3-1-2 3-3z" fill="#53545A"/>
<path transform="translate(835,416)" d="m0 0v3l-1 9-2 9-2 3-6 2-4-1 8-16z" fill="#CDCED0"/>
<path transform="translate(815,406)" d="m0 0h16v5l-1-3-16 1-16 8h-19l-2-2 6-2 17-1 13-5z" fill="#4F5055"/>
<path transform="translate(1097,338)" d="m0 0h1l1 15 4 4 6 1-1 5-6 1-4-2 3 15-1 4-6-22 1-5v-8z" fill="#86888F"/>
<path transform="translate(763,409)" d="m0 0h2l-1 10-5 6-9 2 2-10 1-4h8v-2h2z" fill="#1A1A1C"/>
<path transform="translate(670,488)" d="m0 0h2v5l4 1 1-2 1 3-6 1-3 10 4 1-2 7-5-1-1 3v-9l1-3-2-3 1-6 2-4h2z" fill="#585A5F"/>
<path transform="translate(878,467)" d="m0 0h7l1 14h2l1 5-4-2-13-13-1-3z" fill="#56585D"/>
<path transform="translate(694,391)" d="m0 0h3v2l3 1 34 1 13 1-2 2h-15l-35-1v3h-2l-3-6 1-2h3z" fill="#D3D4D6"/>
<path transform="translate(943,392)" d="m0 0 6 1-1 6-2-1-1 2h3l-1 3h-2v2h-2l-1 3-1-3-4 1-4-5v-2h2v-2h6v-2h-6v-2z" fill="#717378"/>
<path transform="translate(173,32)" d="m0 0h4v4h5l3 4-1 7-3 2h-7z" fill="#1B1B1D"/>
<path transform="translate(1318,356)" d="m0 0 4 2v2l6 2 3 2v2l4 1 2 7v6h-3l-9-13-7-8z" fill="#22232C"/>
<path transform="translate(1142,259)" d="m0 0h18l30 2 17 3 5 1v1h-13l-33-4-24-1z" fill="#1F1F22"/>
<path transform="translate(946,362)" d="m0 0 4 1h-2v2l19-3h6l-2 2-22 4-11 1-1 1h-11l2-1v-2l9-3z" fill="#FEFEFE"/>
<path transform="translate(863,315)" d="m0 0m-1 1m-1 1m-1 1v3l-12 11h-2l-1 3-11 8-8 4v-2h-2v2l-4 1-2-5 3-2 10 1 26-22z" fill="#CBCCCF"/>
<path transform="translate(1218,34)" d="m0 0h5l2 3-6-1-1 2 7 2 1-3h3l1 2 2-2h5v11l-5 1 3-3-5-2-1 2h-3l-1-2-3 2-5-1-1-3h2v2h5v-3l-6-2v-4z" fill="#607DE5"/>
<path transform="translate(960,382)" d="m0 0h9l-4 2-32 6-29 4h-5l1-2 23-3h6v-2z" fill="#D1D2D4"/>
<path transform="translate(1250,475)" d="m0 0 1 3-1 2h2v3l-3 1-1 3-2-1-6 2-5 1-3-1 6-7 2-3z" fill="#56585C"/>
<path transform="translate(1154,272)" d="m0 0 24 1 1 4h-22l-3 2-1-3h-7l-5 1-1 2h-5v2l-5 1-1 2v-3l4-3 12-4z" fill="#414245"/>
<path transform="translate(934,552)" d="m0 0h11l18 2h15l10-1h3l2 4-5 1h-15l-27-3-12-2z" fill="#515359"/>
<path transform="translate(820,473)" d="m0 0 7 4 3 7 10 10 8 7 5 4h-6l-5-5-8-7-5-2-3-4v-2h2v-2l-4-2-4-6z" fill="#81838A"/>
<path transform="translate(779,426)" d="m0 0h11l2 5 10-4h2l-1 3-13 5-1 1-19 1-4-2 8-3h16l-1-4-10-1z" fill="#7A7B80"/>
<path transform="translate(959,499)" d="m0 0h1l1 16 3 2v3l3 1v2l3 1-1 4-10 4h-3v-2h2z" fill="#86888F"/>
<path transform="translate(701,442)" d="m0 0h7l3 1 1 8 14 1 1 3-12-1h-18l-3-1v-3h11v2l5-1-2-5-7-2z" fill="#66686D"/>
<path transform="translate(1239,310)" d="m0 0 1 2 4-1 4 2 6 10-1 2h-3l-4 1v2h-2l-5-15z" fill="#3A3B41"/>
<path transform="translate(854,525)" d="m0 0h38l28 1v1l-38 1h-29z" fill="#3D3E43"/>
<path transform="translate(826,522)" d="m0 0 4 2 6 7-4 3h-7l-1 3-4-6 1-5h2l1-3z" fill="#87898F"/>
<path transform="translate(665,437)" d="m0 0 2 3 1 2 1 9v21l-1 8h-1l-2-16-1-26z" fill="#D0D1D3"/>
<path transform="translate(1155,497)" d="m0 0 2 1 1 2-5 2-17 2-10 1-11 3h-3l1-4 9-2 12-2 2-1 16-1z" fill="#6A6C71"/>
<path transform="translate(280,563)" d="m0 0h7l2 2v11l2 1h-4l-7 1-3-3 1-4 3-2h6l-1-3h-5l-1 2h-2l1-4z" fill="#414246"/>
<path transform="translate(1109,312)" d="m0 0h3l1 4 6 2v2l-7 3-3 9-7-1v-2h4v-2h-3l-1-4 1-2h4l-1-2z" fill="#4E5055"/>
<path transform="translate(1275,368)" d="m0 0h4v2l-4 2-4 3h-2v2l2-1 18-1-1 4-7 3-3 1-9-4-2-5z" fill="#494B4F"/>
<path transform="translate(358,563)" d="m0 0h6l3 4 1 11-4-1-7 1-2-2v-5l4-2h5v-4h-6l-1 3-1-3z" fill="#3C3D41"/>
<path transform="translate(707,489)" d="m0 0h13l6 1-8 4-9 2-2 1v-2l-28-2 1-2 22 1 4 1z" fill="#494A4E"/>
<path transform="translate(1293,414)" d="m0 0 3 1-6 4-6 8-1 2 4-1-2 5-4 9-7 3 3-10 8-14z" fill="#414247"/>
<path transform="translate(989,396)" d="m0 0h2l-1 3-23 14h-9l6-7 7-8 3 1-3 1-2 7 4-1 8-4 1-2z" fill="#1A1B1D"/>
<path transform="translate(1179,314)" d="m0 0 1 2 5 1 2-1 3 17v5l-1-4h-2v-2l-3 1-3-5-2-10z" fill="#3A3B41"/>
<path transform="translate(119,563)" d="m0 0h6l2 2v11h2v2l-4-1-7 1-2-2v-5l3-2h6v-4h-6v3h-3l2-4z" fill="#3B3C40"/>
<path transform="translate(1258,507)" d="m0 0 5 3 1 6-6 1-23 4h-5l-1-3 26-5h5z" fill="#47494E"/>
<path transform="translate(740,405)" d="m0 0 3 4 9 3-1 2h-5l2 7 2 2-1 2-1 4h-6l-5-4-2-4v-8l5 10 5 3 1-1-1-4v-8l-5-1-3-4z" fill="#D4D5D7"/>
<path transform="translate(1052,426)" d="m0 0h23l2 2-15 2-13 3-4-1-3-2 6-1v-2z" fill="#505256"/>
<path transform="translate(506,563)" d="m0 0h6l3 2 1 6h-11l2 4h5l1-2h2l-2 4-1 1-7-1-2-3v-7z" fill="#3B3C3F"/>
<path transform="translate(387,563)" d="m0 0 7 1 2 3v4l-10 1 1 3h5l4-2-2 4-7 1-3-3-1-7z" fill="#3D3F42"/>
<path transform="translate(321,563)" d="m0 0 7 1 2 3v4l-10 1 1 3h5l4-2-2 4-7 1-3-3-1-7z" fill="#3C3D41"/>
<path transform="translate(432,563)" d="m0 0 7 1 2 3v4l-10 1 1 3h5l4-2-2 4-7 1-4-5 1-7z" fill="#3F4043"/>
<path transform="translate(1039,431)" d="m0 0 2 1-3 3h-2v2l-4 1-1 3-5 3-4 7-4-2-2 1 2-4 6-7 6-5z" fill="#3C3D41"/>
<path transform="translate(183,563)" d="m0 0h6l3 3v5h-10l2 4h5l1-2h2l-2 4-1 1-7-1-2-2v-9z" fill="#3E3F42"/>
<path transform="translate(461,563)" d="m0 0h6l3 3v5h-10l2 4h5l1-2h2l-2 4-1 1-7-1-2-2v-8z" fill="#393A3D"/>
<path transform="translate(104,563)" d="m0 0h6l3 3v5h-10l2 4h5l1-2h2l-2 4-1 1-7-1-2-3v-8z" fill="#38383C"/>
<path transform="translate(985,493)" d="m0 0h7l3 1-1 2h-12l-14 1h-20l-2 1h-9v-1l7-1-8-1v-1h34z" fill="#4C4E52"/>
<path transform="translate(1105,507)" d="m0 0h1l1 9 4-2 5 1 7-2 19-3 4 1-3 1h-6v2h-6v2l-14 2-7 2-5-1z" fill="#45464A"/>
<path transform="translate(174,603)" d="m0 0 6 1 2 2v5h-10l1 4 4 1 3-3h2l-1 4-1 1h-7l-3-3v-8z" fill="#2A2A2D"/>
<path transform="translate(243,603)" d="m0 0 5 1 2 2v5h-10l1 5 6-1 1-2h2l-1 4-1 1h-7l-3-3v-8l3-3z" fill="#2A2A2D"/>
<path transform="translate(843,416)" d="m0 0h5l1 9-4 5-5 2-2 4-2 2 1-5h2v-6l3-10z" fill="#444548"/>
<path transform="translate(113,31)" d="m0 0h6l1 2-1 2-6 2v6l7 2v4h-7l-4-4-1-2 1-9z" fill="#232326"/>
<path transform="translate(1126,337)" d="m0 0h14l-5 5-26 2v-2l4-2z" fill="#58595E"/>
<path transform="translate(1122,326)" d="m0 0 14 1 10 1v2l-13 2h-14l2-5z" fill="#585A60"/>
<path transform="translate(452,603)" d="m0 0 5 1 2 2v5h-10l1 5 6-1 3-1-2 4h-7l-3-3v-8l3-3z" fill="#26272A"/>
<path transform="translate(928,386)" d="m0 0h6v1h-5v2l-29 4-6-1-11 1h-9v-1l8-1-1-2h7l4 1 31-3z" fill="#76787E"/>
<path transform="translate(968,401)" d="m0 0m-1 1m-1 1m-2 1 2 1-7 7 5 1v1l-15 2h-7l-8-2v-1l12-1 11-4 3-2h2z" fill="#47484C"/>
<path transform="translate(1139,269)" d="m0 0h5l1 3-7-1v2l-12 6-8 9-7 15h-2l3-9 7-11 6-6v-3l9-4z" fill="#3E3F44"/>
<path transform="translate(1320,511)" d="m0 0h8l-3 2h-4l-1 14-4 17-5 12-4 4 1-5 5-11 3-10 1-9 1-2 1-11z" fill="#101C4A"/>
<path transform="translate(131,563)" d="m0 0h4 5 3 6l1 1v13h-2v-12l-5 1-1 11h-2l-1-11-5 1-1 10h-2z" fill="#343538"/>
<path transform="translate(1291,485)" d="m0 0 3 1v4l6-2-4 4h-3v2h-2v2h2v2h-3v2h2l3 5v7l1 3-4-1-1-6h-3v-2l4 1v-2h-3l-1-6 2-6z" fill="#606166"/>
<path transform="translate(1118,324)" d="m0 0 17 1 12 2h12v2l2 1-18 1 3-1v-2h-10l-14-1-2 4 2 2h-5v-8z" fill="#3E3F43"/>
<path transform="translate(123,36)" d="m0 0h7l2 2v10l-1 1h-7l-2-2v-5l1-1h5v-2h-5z" fill="#28282B"/>
<path transform="translate(976,377)" d="m0 0h12v1l-28 5-20 3h-5l3-1v-2l34-5z" fill="#45464A"/>
<path transform="translate(160,36)" d="m0 0h4l1 9 2 1v-10h4v12l-2 1h-6l-3-3z" fill="#212224"/>
<path transform="translate(73,557)" d="m0 0h5l4 4v2h-2l-3-3h-6v5l10 3 1 1v6l-3 3h-7l-4-4v-3h2l1 4h9l-1-5-9-3-1-1v-6z" fill="#2F3033"/>
<path transform="translate(906,523)" d="m0 0h23v1l5 1v1h-42l-10-1v-1z" fill="#515256"/>
<path transform="translate(1161,507)" d="m0 0h8l3 3-34 5h-7v-1h6v-2l8-1 3-2z" fill="#4A4B50"/>
<path transform="translate(1315,413)" d="m0 0 4 1 4 7-1 2-6-4-9-1-11 3-8 7-1-2 6-7 12-4h11z" fill="#414245"/>
<path transform="translate(1275,332)" d="m0 0 19 2 16 3-3 2h-14l-18-3v-3z" fill="#9D9EA3"/>
<path transform="translate(871,408)" d="m0 0 2 1-1 1 5 2 9-1h10v1l-29 3 2 1 4 1 13 1v1l-10 1h-12l-1-4 5-6z" fill="#606267"/>
<path transform="translate(767,447)" d="m0 0h3v2l-13 7h-23l-2-6 2 1v2l25-1 7-4z" fill="#A4A6AA"/>
<path transform="translate(1263,332)" d="m0 0h11l-4 2-6 5-6 7-4 2-4-1 3-1 2-4z" fill="#C9CACD"/>
<path transform="translate(68,604)" d="m0 0 2 1 3 8 3-9h2l3 9 3-9h2l-3 12-1 2-3-1-2-7-3 8h-3l-3-10z" fill="#333438"/>
<path transform="translate(1102,301)" d="m0 0 1 2-9 24-2 7-2 1h-7l5-6 2-5h2l1-4 8-18z" fill="#F1F1F2"/>
<path transform="translate(911,493)" d="m0 0 4 1-3 2 11-1h21l1 2-8 1h-34l4-2 3-1z" fill="#94969B"/>
<path transform="translate(1048,493)" d="m0 0h8l9 4 2 4-3 1h-8v-7l-14 3v2h-2l2-4z" fill="#404146"/>
<path transform="translate(1043,537)" d="m0 0h3l1 3-4 4 4 1 1-2 2 1v7l-1 2h-5l-3-5-2-1 1-4z" fill="#74767B"/>
<path transform="translate(1144,541)" d="m0 0h13v1l-31 6-8 1h-12v-2l16-1 12-2 4-2h5z" fill="#0F1B48"/>
<path transform="translate(1108,527)" d="m0 0 6 2 6 4v3l-2 1h-11v-9z" fill="#3B3C41"/>
<path transform="translate(856,418)" d="m0 0 2 2-1 2h-2l-2 5-9 7-12 12 1-5 7-9 8-6z" fill="#292A2D"/>
<path transform="translate(946,517)" d="m0 0h2v7l-4 1h-22v-3l20-2 3-1z" fill="#62646A"/>
<path transform="translate(1240,294)" d="m0 0 4 2 10 11 9 12h-3l-6-5-7-9-7-8z" fill="#56585D"/>
<path transform="translate(786,408)" d="m0 0h13l1 5-17 1-7 1 4-4z" fill="#111113"/>
<path transform="translate(949,322)" d="m0 0h1l-1 7-2 4-13-1 1-4 9-4z" fill="#434446"/>
<path transform="translate(1080,300)" d="m0 0 6 1-2 6-5 5-1 7h-2l-1-8 1-7z" fill="#3A3B41"/>
<path transform="translate(1036,501)" d="m0 0 3 1-3 6-3 14h-3l-1 3 2 9-3-4v-2h-2l1-7 7-14z" fill="#47484D"/>
<path transform="translate(710,427)" d="m0 0 4 4 11 1v2h-25l-5-1 1-3h14z" fill="#9B9CA0"/>
<path transform="translate(1068,544)" d="m0 0 9 2 4 3v8l-2 1-3-6-9-4-6-2v-1h7z" fill="#414245"/>
<path transform="translate(252,493)" d="m0 0h10v9h-10z" fill="#161619"/>
<path transform="translate(226,294)" d="m0 0h3l-1 7-4 3h-6l-1-1v-5l5-3z" fill="#EEEFEF"/>
<path transform="translate(701,423)" d="m0 0h9l1 4-1 3-6 1h-8l-2 1 2-4z" fill="#66686D"/>
<path transform="translate(150,359)" d="m0 0h9v9h-10v-8z" fill="#262629"/>
<path transform="translate(1190,261)" d="m0 0 18 2 17 3v2l11 1v1h-11l-19-3 1-2-17-3z" fill="#424449"/>
<path transform="translate(110,167)" d="m0 0h9l1 1v8h-10z" fill="#262629"/>
<path transform="translate(889,467)" d="m0 0 5 1 5 6v2h2l2 9-1 2-12-16z" fill="#C9CACD"/>
<path transform="translate(326,390)" d="m0 0h2v6l-4 4h-6l-2-5 2-3z" fill="#F5F5F5"/>
<path transform="translate(293,605)" d="m0 0 5 1 1 1v7l-3 3-4-1-2-2v-6z" fill="#F0F1F1"/>
<path transform="translate(1052,590)" d="m0 0 3 1v2h2v2l4-2-1 5-1 3-8 4h-2v-3h2v-7h2z" fill="#515257"/>
<path transform="translate(1120,533)" d="m0 0 4 1 4 3 7 1v1l-13 1h-15v-3l11-1z" fill="#54565B"/>
<path transform="translate(861,517)" d="m0 0 31 1v1l-31 1 4 5-1 1-8-1-2-2v-3h4v-2z" fill="#5E6065"/>
<path transform="translate(910,407)" d="m0 0h5l2 2 5 2 1 2-6-1-3-2-18 1-19 2h-5l4-2 11-2z" fill="#C0C1C4"/>
<path transform="translate(983,378)" d="m0 0 14 1h7v1l-12 1-1 2-3-1h-11l-7 2-10 1v-1l5-1v-2z" fill="#56585D"/>
<path transform="translate(1172,289)" d="m0 0h7l4 12-1 4v-2h-2v-2l-5-2-3-8z" fill="#585A5F"/>
<path transform="translate(1149,268)" d="m0 0h20l7 3 1 2h-20l2-4h-10z" fill="#46474C"/>
<path transform="translate(397,605)" d="m0 0 5 1 2 2-1 7-4 2-4-2v-8z" fill="#F2F2F3"/>
<path transform="translate(417,565)" d="m0 0h5l2 2v6l-3 3-5-1-1-1v-7z" fill="#F2F2F3"/>
<path transform="translate(830,412)" d="m0 0h5v2l-7 2-21 1-3-2 7-2z" fill="#66686D"/>
<path transform="translate(119,487)" d="m0 0h6v6l-4 3h-6l-1-1v-6z" fill="#F6F6F7"/>
<path transform="translate(1208,474)" d="m0 0 2 1v5l9-1-2 2-7 2-2 9h-1v-8l-17 4-8 1 3-2 19-5h3v-7z" fill="#58595F"/>
<path transform="translate(932,474)" d="m0 0h7l2 5-1 4-6 1-3-1v-8z" fill="#65666B"/>
<path transform="translate(886,468)" d="m0 0 4 1 9 13-1 3h-2-5l-1-4 1-2-2-1-1-6z" fill="#1A1A1C"/>
<path transform="translate(311,295)" d="m0 0h6v6l-4 3h-6l-1-1v-6z" fill="#F6F6F7"/>
<path transform="translate(373,605)" d="m0 0 5 1 1 2v6l-2 2h-5l-2-3 1-7z" fill="#F5F5F6"/>
<path transform="translate(101,598)" d="m0 0h2l1 6 5-1 4 3v12h-2l-1-11-5-1-1 2-1 10h-2z" fill="#3F4044"/>
<path transform="translate(1047,435)" d="m0 0h6l-1 3-12 4-9 6-2 1 1-5 5-4z" fill="#37383E"/>
<path transform="translate(684,475)" d="m0 0h30l10 1v1h-28l-12 1-4 8-2 3 1-7 2-5z" fill="#5C5D62"/>
<path transform="translate(178,455)" d="m0 0h9v9h-9z" fill="#19191B"/>
<path transform="translate(909,397)" d="m0 0h14l-2 2-4-1v2l-13 1-2 1-16 2-10 2 4-3 14-3 10-2z" fill="#5F6166"/>
<path transform="translate(1098,317)" d="m0 0h2l-1 4h4l-3 11-1 3h-2v-3h-2l-1 2 1-8z" fill="#F2F2F3"/>
<path transform="translate(1073,614)" d="m0 0v3l-5 6-2 6-5 4-5 2-3-1 6-4 3-6 2-1 2-4 5-3z" fill="#1A2B6D"/>
<path transform="translate(334,598)" d="m0 0h2l1 11 5-5 3 1-3 3 1 5 3 5-4-2-2-5-3 1-1 6h-2z" fill="#3D3E41"/>
<path transform="translate(732,431)" d="m0 0 2 1h30l6-1-3 3-2 1h-33z" fill="#AEB0B4"/>
<path transform="translate(1075,512)" d="m0 0 3 4 2 7 1 8v10l-2-2-5-11-2-2 5-2z" fill="#4A4C50"/>
<path transform="translate(747,401)" d="m0 0h13l6 4 1 1v6l-2-4h-2l-1-3-3-2-5-1 2 3-1 5 3 1h-4l-1-6h-3l-1-2-8 2 2-3z" fill="#BEBFC2"/>
<path transform="translate(1319,355)" d="m0 0h6l10 5v3 3h-4v-2l-6-2-5-5z" fill="#6F7176"/>
<path transform="translate(929,572)" d="m0 0h28v2l-22 1-7-1v2l-9 1 1-3z" fill="#2C54E5"/>
<path transform="translate(817,517)" d="m0 0h13l-3 5-2 2-4 2-1 3v-2h-2l-2-5z" fill="#BCBDC0"/>
<path transform="translate(1147,503)" d="m0 0h5l-4 4-21 3v-3l5-2z" fill="#525459"/>
<path transform="translate(666,437)" d="m0 0 4 2v41l-1 3h-2l-1 3 1-6 1-8v-21l-1-9z" fill="#74767C"/>
<path transform="translate(767,407)" d="m0 0h1v7l-4 10-3 1-3 3-5 2h-6l1-2 8-3 5-3 2-3 2-9z" fill="#808287"/>
<path transform="translate(852,412)" d="m0 0h7l2 1-2 4-8 7-2-1 1-9z" fill="#6F7176"/>
<path transform="translate(323,603)" d="m0 0 6 1 3 4-1 7-2 3h-7l-3-3v-9zm0 2-2 2v8l5 2 3-2 1-7-3-3z" fill="#343538"/>
<path transform="translate(421,603)" d="m0 0 6 1 3 4-1 8-2 2h-7l-3-3v-9zm0 2-2 2v7l3 3 4-1 2-4-1-5-2-2z" fill="#46474B"/>
<path transform="translate(1288,516)" d="m0 0h2v3h2v13l-4 12 5 1v1h-5l-4-8v-2h2v2l2-1 1-4v-9l-2-7z" fill="#5C5E63"/>
<path transform="translate(1106,491)" d="m0 0h1l1 19h1l2-11h1l-1 14 10 1v1l-9 1h-2-2l-1 2-1-2z" fill="#6F7176"/>
<path transform="translate(749,402)" d="m0 0 2 1-1 2h3v6l-10-1-2-5z" fill="#2A2B2F"/>
<path transform="translate(1270,279)" d="m0 0 16 4 9 4 1 3v9l-3-1 2-1-2-5v-5l-6-1-9-1-8-5z" fill="#D0D1D3"/>
<path transform="translate(1178,273)" d="m0 0 16 1-2 3h-12l3 9h-20v-1l17-1-3-7h2z" fill="#55575D"/>
<path transform="translate(1193,265)" d="m0 0 13 1 13 2-3 1v2l-27-3z" fill="#E7E8E9"/>
<path transform="translate(973,264)" d="m0 0h17v1l-31 5h-5l2-2 10-3z" fill="#282F4A"/>
<path transform="translate(939,516)" d="m0 0h6l-1 3-13 2h-10l1-3 4-1z" fill="#FEFEFE"/>
<path transform="translate(933,389)" d="m0 0h6l-1 3-3 3 4 1-16 2-4-2 10-2 1-3h-6v-1z" fill="#37383C"/>
<path transform="translate(1057,343)" d="m0 0 3 1h-2l1 7-4 8-5 6-8 4-4-2 9-3 5-5 4-9v-5h-9v-1z" fill="#56585D"/>
<path transform="translate(204,603)" d="m0 0 6 1 3 4-1 7-2 3h-7l-3-3v-9zm0 2-2 2v8l3 2 4-1 2-3-1-6-2-2z" fill="#2E2E32"/>
<path transform="translate(219,563)" d="m0 0h6l3 3 1 6-3 5-6 1-4-3v-9zm0 2-2 6 3 5 5-1 2-5-2-5z" fill="#36373B"/>
<path transform="translate(708,467)" d="m0 0h36v2l-10 1h-14v-2h-12z" fill="#F5F5F5"/>
<path transform="translate(681,459)" d="m0 0 6 1v2l2-1-1-2 7 2v3h12l13 1v1h-17l-13-2h-8z" fill="#6F7176"/>
<path transform="translate(689,427)" d="m0 0 2 3 2 16-2 7h-3v-23z" fill="#66676D"/>
<path transform="translate(110,690)" d="m0 0h7l1 1v6l-2 2h-3l-1 3h-2z" fill="#B8C2E5"/>
<path transform="translate(787,626)" d="m0 0 20 2h2l1 4h-12l-9-2z" fill="#55575D"/>
<path transform="translate(759,512)" d="m0 0h13l1 1v5l-7-1v-3h-2v4h-5l-1-5z" fill="#97989C"/>
<path transform="translate(685,406)" d="m0 0 7 4v6h-7l-3-2v-5l3-1z" fill="#55575C"/>
<path transform="translate(1173,308)" d="m0 0h1l1 5v7l-3-2h-2v7l-1-2-3-1-2-2-1-4 3-1 3 3-1-4 5-2z" fill="#434446"/>
<path transform="translate(128,603)" d="m0 0 5 1 3 3v7l-3 4h-7l-3-4v-7zm0 2-3 3v6l3 3 4-1 2-2v-6l-2-3z" fill="#2A2B2E"/>
<path transform="translate(358,603)" d="m0 0 5 1 2 2v12h-2l-1-11-4-1-2 3-1 9h-2v-14z" fill="#494A4E"/>
<path transform="translate(888,481)" d="m0 0 2 2 2 5 4 1 3-4 1-2 2 3v4h-2l-1 7h-2l-7-8-2-4z" fill="#48494D"/>
<path transform="translate(1235,480)" d="m0 0 2 1-3 1-2 4-5 7v1h-7l3-5 6-7z" fill="#3D3E43"/>
<path transform="translate(734,395)" d="m0 0h15l-1 4h7v-1h7l1 2-16 2h-2l-1-2-5 3 1-3-5-1v-1l10-1-11-1z" fill="#58595F"/>
<path transform="translate(836,341)" d="m0 0h3l-2 6h5v3h-7v-2h-10l5-4z" fill="#212225"/>
<path transform="translate(479,603)" d="m0 0 5 1 2 4h-2l-1-2h-4l-1 3 7 2 1 1v5l-1 1h-8l-1-5 2 1v2h5l1-4-7-1-1-1v-5z" fill="#37383B"/>
<path transform="translate(926,534)" d="m0 0h10l-2 2-11 2h-13l-10-1v-1z" fill="#EBEBEC"/>
<path transform="translate(256,603)" d="m0 0 6 1 1 4-3-2h-4l1 3 7 3-1 5-1 1h-7l-2-2v-3h2l2 3h5l-1-3-7-3-1-4z" fill="#36373B"/>
<path transform="translate(491,563)" d="m0 0h7l2 2v3h-2l-1-2h-5l-1 7 1 2h5l3-3-1 5-7 1-4-4v-7z" fill="#333437"/>
<path transform="translate(232,563)" d="m0 0h1l1 13 5-1 1-2 1-10h2v14l-9 1-3-4v-10z" fill="#4B4C50"/>
<path transform="translate(818,518)" d="m0 0h14l1 3 4 2 5 5-1 3-4-3-5-3-4-4v-2h-10z" fill="#ECEDED"/>
<path transform="translate(742,510)" d="m0 0h3l1 2 5-1h2v2l4-1-1 4-7 1-1-2-1 1h-7z" fill="#999B9E"/>
<path transform="translate(1048,465)" d="m0 0 3 3v2l-3 1 1 2-8 4-2-6v-3l8-2z" fill="#3F4044"/>
<path transform="translate(846,401)" d="m0 0 3 2-4 4h-2l-1 4-2 4-1 8-2 4v-12-3l8-10z" fill="#717378"/>
<path transform="translate(1188,296)" d="m0 0h2l2 6v13l-5-2-2-8 2-3 2 3z" fill="#515358"/>
<path transform="translate(1157,276)" d="m0 0h18v1l-14 1-3 5-5 1 2-6zm-6 8 8 2v1l-12 1v-3z" fill="#5C5E63"/>
<path transform="translate(1142,267)" d="m0 0h28l-1 2h-20l-15 2-9 3-1-2 6-3z" fill="#D0D1D3"/>
<path transform="translate(466,603)" d="m0 0 5 1 1 4-3-2h-4l1 3 7 3-1 5-1 1h-7l-2-2v-3h2l2 3h5l-1-3-7-3-1-4z" fill="#35363A"/>
<path transform="translate(306,604)" d="m0 0h8l3 5-1 6-2 3h-7l-3-3v-9zm2 1-2 2v8l3 2 4-1 2-3-1-6-2-2z" fill="#2D2D30"/>
<path transform="translate(202,563)" d="m0 0 3 3 3 7 4-10h2l-3 10-5 10h-3v-2l3-3-4-12z" fill="#353639"/>
<path transform="translate(474,563)" d="m0 0h3 6l2 3v11h-2l-1-11h-5l-1 2-1 9h-2v-13z" fill="#37383C"/>
<path transform="translate(661,526)" d="m0 0h2v2l6 2h7l-4 4v4l-5-1-6-6z" fill="#D0D1D3"/>
<path transform="translate(1e3 388)" d="m0 0 1 4-8 5-6 1v-5l2-2z" fill="#56575C"/>
<path transform="translate(1e3 379)" d="m0 0h2v2l-11 3 1 3-6 1-1-4-7-1-5-1v-1h11 4z" fill="#434447"/>
<path transform="translate(880,340)" d="m0 0h10v1l-14 2-10 1-2 1h-15v-1l18-3z" fill="#3E3F43"/>
<path transform="translate(836,327)" d="m0 0 2 1-6 5-3 5h-7l-2-2 9-6z" fill="#41444E"/>
<path transform="translate(139,604)" d="m0 0h2v12h6l1-12h2v14h-9l-2-2z" fill="#37383C"/>
<path transform="translate(333,563)" d="m0 0h9l2 2v12h-2v-12l-6 2-1 10h-2z" fill="#393A3E"/>
<path transform="translate(1061,471)" d="m0 0 4 1 2 2-1 1-13 1-13 6 2-4 6-4 13-2z" fill="#37383D"/>
<path transform="translate(437,603)" d="m0 0 5 1 2 4-4-2h-4l-1 2v6l1 1h5l1-2h2l-1 4-1 1h-7l-3-3v-7l1-3z" fill="#3E3F43"/>
<path transform="translate(801,413)" d="m0 0 2 1-5 3h-19l-2-2 1-1z" fill="#A0A2A7"/>
<path transform="translate(268,604)" d="m0 0h7l2 4h-2l-1-2h-4l-1 3 7 2 1 1v5l-1 1h-7l-2-1 1-4 1 3h5v-3l-7-3v-5z" fill="#38393D"/>
<path transform="translate(81,475)" d="m0 0h7l3 3v3h-13l2-5z" fill="#F8F8F8"/>
<path transform="translate(1298,451)" d="m0 0h5l-1 2h-2v2l-6 4-7 7-1-3 4-7z" fill="#4A4C51"/>
<path transform="translate(721,405)" d="m0 0h8l3 1 3 7v8l-2-4-1-1h-5l-1-3h5l-1-6-10 1z" fill="#5C5D62"/>
<path transform="translate(848,342)" d="m0 0h8v1h-7v2h33v1l-25 1-15-1v-2z" fill="#616368"/>
<path transform="translate(106,283)" d="m0 0h7l3 3v3h-13l1-4z" fill="#F6F7F7"/>
<path transform="translate(134,36)" d="m0 0h8v3l-3 1-1 9h-4l-1-12z" fill="#232426"/>
<path transform="translate(266,563)" d="m0 0h6l2 2-1 3-2-2h-5l-1 7v2h6l2-3h2l-2 5-7 1-4-5 1-7z" fill="#424347"/>
<path transform="translate(908,477)" d="m0 0 12 1 2 1-2 4-9-1 1 3h-2l-2-4z" fill="#3A3B41"/>
<path transform="translate(869,335)" d="m0 0 3 3v2h8v1l-20 2-3 1h-8v-1l9-2 6-1 1-3h4z" fill="#57595F"/>
<path transform="translate(762,454)" d="m0 0h21l-1 3h-19l-3-2z" fill="#84858A"/>
<path transform="translate(756,395)" d="m0 0h55v1l-44 1-4 1-7-2z" fill="#48494D"/>
<path transform="translate(996,353)" d="m0 0 4 1 2 2-20 3h-9l4-2z" fill="#7C7E84"/>
<path transform="translate(1146,280)" d="m0 0h6v3l-12 4-8 5-2-1 5-5 4-1v-2z" fill="#5C5E63"/>
<path transform="translate(984,265)" d="m0 0h14l-3 2-17 2-4 1h-8v-1h6v-2z" fill="#ECECED"/>
<path transform="translate(124,690)" d="m0 0h5l2 5-1 3-5 1-3-3 1-5z" fill="#A9B7EA"/>
<path transform="translate(1063,621)" d="m0 0h2l-2 5h-2l-2 5-6 3h-5l3-3 6-4-2-2z" fill="#1A223E"/>
<path transform="translate(398,563)" d="m0 0 4 2 1 2h2l3-4 2 1-4 5 2 4 2 5-3-1-3-4-4 4-2-1 3-4-1-5z" fill="#404146"/>
<path transform="translate(949,525)" d="m0 0 5 1 3 2-1 4-5 3-1 2-3-1 1-2z" fill="#54565C"/>
<path transform="translate(707,474)" d="m0 0h26l4 1v2h-13l-17-2z" fill="#808288"/>
<path transform="translate(817,444)" d="m0 0 1 3 3-1h9l-2 4-9-1v3l-6 2 2-6z" fill="#3E3F43"/>
<path transform="translate(1187,374)" d="m0 0 2 1-2 3 3 1-8 2v2l7-1h9v1l-8 2-11-1v-5z" fill="#5D5E64"/>
<path transform="translate(824,348)" d="m0 0h11v2l6 1v1h-20l1-3z" fill="#68696F"/>
<path transform="translate(743,603)" d="m0 0 2 1v3h-2v6l2 1 3 3 7 4-2 2-9-4-2-5-2-1 1-5z" fill="#54565C"/>
<path transform="translate(954,558)" d="m0 0h12l23 2 2 2-3 1-34-4z" fill="#3A3B41"/>
<path transform="translate(1069,503)" d="m0 0h2l4 7-1 2-1-1h-5l-6 10-1-2 6-13z" fill="#414247"/>
<path transform="translate(945,507)" d="m0 0 2 3 1 6-18-1 1-2 8-1-2-2 8-1z" fill="#424347"/>
<path transform="translate(1097,338)" d="m0 0h1l1 15 4 4 6 1-2 1v2l-4 1-5-2-1-3z" fill="#57595E"/>
<path transform="translate(138,690)" d="m0 0h5l2 2-1 6-5 1-2-2z" fill="#BCC4DE"/>
<path transform="translate(1311,525)" d="m0 0 1 3-3 12-2 1v-6l-5 1-1-6 6 2 1-4z" fill="#47494E"/>
<path transform="translate(854,525)" d="m0 0h17v2h11v1h-29z" fill="#3A3B3E"/>
<path transform="translate(880,445)" d="m0 0 2 1v2l-12 1h-17l3-2z" fill="#ECECED"/>
<path transform="translate(693,386)" d="m0 0 4 2 2 4h16l10 1v1h-26l-5-5z" fill="#161619"/>
<path transform="translate(1166,335)" d="m0 0h1v9h-4v-3l-11 1-2 1h-12l-1-2 2-3 1 2h26z" fill="#54565B"/>
<path transform="translate(1101,334)" d="m0 0h7v12l-5 1v-6l-2-3z" fill="#4D4F54"/>
<path transform="translate(1151,290)" d="m0 0h18v5l-1-3-4 2h-4v-2l-10 2-3-2z" fill="#636469"/>
<path transform="translate(154,686)" d="m0 0 5 1 1 4-5-2h-2v6l4 1 4-2-2 4-1 1h-5l-3-4 1-7z" fill="#E1E2E3"/>
<path transform="translate(165,563)" d="m0 0h4 6l1 1v13h-1l-1-11h-5l-1 1-1 10h-2z" fill="#3F4044"/>
<path transform="translate(892,518)" d="m0 0h25l-1 3 4 1h-11l-4-1v-2h-13z" fill="#EAEBEC"/>
<path transform="translate(1294,468)" d="m0 0h8l4 4v2h-7v-4l-3 11-2 1 1-8 1-5z" fill="#494A4F"/>
<path transform="translate(973,395)" d="m0 0h6l-1 3h-2l-1 5-2 4-4 2-3-1 3-2 1-4 3-3-1-2z" fill="#414245"/>
<path transform="translate(1145,343)" d="m0 0 3 2-7 1-7 2-10 1 1-4z" fill="#393A40"/>
<path transform="translate(1032,563)" d="m0 0h3l-2 6-6 11-2-2 1-4 5-10z" fill="#75777E"/>
<path transform="translate(989,556)" d="m0 0 3 1-1 4-25-2v-2h22z" fill="#444547"/>
<path transform="translate(683,509)" d="m0 0h2l-2 6-1 14h2v2l4 1-2 1 3 2-1 3-4-2-3-6v-16z" fill="#48494F"/>
<path transform="translate(722,443)" d="m0 0 9 1 2 6 1 5h-7l1-2h3l-1-7-9 1-2 3-3-1z" fill="#515358"/>
<path transform="translate(280,563)" d="m0 0h7l2 2v11l2 1h-4l-1-3 1-4-2-1h2l-1-3h-5l-1 2h-2l1-4z" fill="#323336"/>
<path transform="translate(948,525)" d="m0 0h1v9 3l-5 4-1-4 1-7z" fill="#75777D"/>
<path transform="translate(951,499)" d="m0 0h4l-1 12-3 1v-2h-2v5h-1v-10l1 4h2z" fill="#585A5F"/>
<path transform="translate(1035,304)" d="m0 0 2 3 2 10v4h-4l-2-6 1-8z" fill="#3A3B41"/>
<path transform="translate(373,603)" d="m0 0 7 1v2h-9v7l1 2 6 2v1h-7l-3-4v-7l2-3z" fill="#3E3E42"/>
<path transform="translate(1036,544)" d="m0 0h2l-1 8-3 1-5-3v-2l-2-1h3v-2l6 1z" fill="#6A6C71"/>
<path transform="translate(666,505)" d="m0 0 6 1 1 2-2 6-5-1-1 3v-9z" fill="#8B8D91"/>
<path transform="translate(878,467)" d="m0 0 3 1-1 7 1 2-4-1-6-7v-1z" fill="#999BA0"/>
<path transform="translate(721,426)" d="m0 0h8l1 6-4 1-7-2z" fill="#131315"/>
<path transform="translate(984,402)" d="m0 0 3 1-5 2-1 4-4 4-5-2v-2z" fill="#EDEDEE"/>
<path transform="translate(92,687)" d="m0 0h9l-3 2h-4v3h6v1h-6v4h7v2h-8l-1-1z" fill="#E2E3E4"/>
<path transform="translate(950,409)" d="m0 0m-6 1h6l-1 2-3 1-12 1h-11v-2z" fill="#D0D1D3"/>
<path transform="translate(721,407)" d="m0 0h9l1 6-8-1-4-2z" fill="#111113"/>
<path transform="translate(1123,276)" d="m0 0 3 1-7 7-9 15-1-2 6-12z" fill="#1F1F21"/>
<path transform="translate(1305,561)" d="m0 0v3l-3 7-9 4h-5l1-2 10-4 2-5z" fill="#1B2C6C"/>
<path transform="translate(701,444)" d="m0 0 8 1 1 6-5 1v-2l-6-1z" fill="#111113"/>
<path transform="translate(1039,431)" d="m0 0 2 1-3 3h-2v2l-4 1v-2l-9 8h-2l2-4 7-6z" fill="#2F2F32"/>
<path transform="translate(943,392)" d="m0 0 6 1-1 6-2-1-1 2h3l-1 3h-2v2h-2l-1 3-1-9h3v-3h2v-3z" fill="#57585D"/>
<path transform="translate(688,389)" d="m0 0 1 4 1 5h-2l-3-3-2 9-1 10-2-2 1-10 4-9z" fill="#D0D1D3"/>
<path transform="translate(1293,339)" d="m0 0h6l-2 5h-17l1-3 12 1z" fill="#44454A"/>
<path transform="translate(906,523)" d="m0 0h23v1l5 1v1h-23v-1l-5-1z" fill="#595A60"/>
<path transform="translate(1131,501)" d="m0 0m-9 1h9l-1 2-15 4h-3l1-4z" fill="#6B6D72"/>
<path transform="translate(1197,499)" d="m0 0h11l-2 2-19 3h-7v-1l9-2z" fill="#A3A4A8"/>
<path transform="translate(1151,320)" d="m0 0h2v2l5 1 8 6-1 5-4-3v-2h-2l-1-3-8-4z" fill="#484A4E"/>
<path transform="translate(1223,519)" d="m0 0h10l-3 1v2h-5l-1 2h-8l-4-3z" fill="#4C4D52"/>
<path transform="translate(666,513)" d="m0 0h6l1 8-2 2-5-4z" fill="#4A4B4F"/>
<path transform="translate(1301,456)" d="m0 0 7 1 3 3 1 7-5-3-4-5-2-1z" fill="#3F4044"/>
<path transform="translate(746,414)" d="m0 0h5l1 11-3 2-1-3v-2l-2-2z" fill="#4E4F54"/>
<path transform="translate(949,411)" d="m0 0h3v3h5v1l-15 1-8-2v-1l12-1z" fill="#5D5F64"/>
<path transform="translate(691,400)" d="m0 0 4 1-1 16h-1l-1-8-5-4 1-3 3 1z" fill="#515357"/>
<path transform="translate(1126,337)" d="m0 0h14l-2 2-15 2-9 1 1-2z" fill="#B9BABD"/>
<path transform="translate(1024,532)" d="m0 0h1l1 11 4 8-7-1v-13z" fill="#3E3F43"/>
<path transform="translate(1305,410)" d="m0 0h9l3 3v3l-10-1-3-4z" fill="#5A5C62"/>
<path transform="translate(976,382)" d="m0 0h6l2 2-13 4-5-2v-2z" fill="#333438"/>
<path transform="translate(459,609)" d="m0 0 1 4-1 2-6 2-3-1-1-5h10z" fill="#E3E3E5"/>
<path transform="translate(1048,566)" d="m0 0 1 2-4 7-5 11-1-4 3-11 4-2z" fill="#5D5F64"/>
<path transform="translate(1036,555)" d="m0 0h3v3l4 1 2 4-1 3v-2h-3v2l-3-1-1-4 1-2h-2z" fill="#6C6D71"/>
<path transform="translate(86,559)" d="m0 0h2v4h2v2h-2v11h2v2l-4-1v-12h-2v-2h2z" fill="#3D3E42"/>
<path transform="translate(710,502)" d="m0 0h10l4 1-1 3h-11l-2-1z" fill="#9E9FA3"/>
<path transform="translate(1306,474)" d="m0 0h2l4 9-1 3-2-5-3-1-2 7 1 2h-3l1-7z" fill="#4B4D52"/>
<path transform="translate(861,457)" d="m0 0h11v2l-6 1h-21v-1z" fill="#3F4045"/>
<path transform="translate(802,433)" d="m0 0h17l-4 1v2h-16v-2z" fill="#A1A3A6"/>
<path transform="translate(740,412)" d="m0 0 5 1 1 12-5-2v-3l2-3h-4z" fill="#3F4044"/>
<path transform="translate(1181,535)" d="m0 0h6v1l-19 4h-6l4-4z" fill="#132259"/>
<path transform="translate(1289,502)" d="m0 0h2v2l4 1v7l1 3-4-1-1-6h-3v-2l4 1v-2h-3z" fill="#86878C"/>
<path transform="translate(1206,500)" d="m0 0h8l1 2-16 3h-5l3-3z" fill="#4C4D52"/>
<path transform="translate(1232,496)" d="m0 0h24l1 3h-30v-2z" fill="#484A4D"/>
<path transform="translate(675,477)" d="m0 0 1 4v13l-5-1 2-10z" fill="#DBDCDD"/>
<path transform="translate(1292,416)" d="m0 0 4 1-7 7-3 5h-3l2-5z" fill="#73757B"/>
<path transform="translate(960,391)" d="m0 0 6 2-2 2-3 2-2 2-6-1v7l-2-1v-6l7-3z" fill="#3C3D42"/>
<path transform="translate(821,341)" d="m0 0 9 2v2l-4 2v-2h-2v2l-4 1-2-5z" fill="#8F9095"/>
<path transform="translate(182,608)" d="m0 0 1 4-3 1-1 3-3 1-4-2v-4h10z" fill="#E9EAEB"/>
<path transform="translate(84,604)" d="m0 0h2l-3 12-1 2-3-1-3-10 3-1 2 7z" fill="#3D3E42"/>
<path transform="translate(195,598)" d="m0 0h3v2h-2v4l2 1h-2v13h-2v-13l-2-1h2v-5z" fill="#3E3F43"/>
<path transform="translate(187,598)" d="m0 0h3v2h-2v4l2 1h-2v13h-2v-13l-2-1h2v-5z" fill="#28292C"/>
<path transform="translate(349,559)" d="m0 0 1 4h3v2h-3v11h3v2l-4-1-1-2-1-12z" fill="#46474B"/>
<path transform="translate(744,399)" d="m0 0 1 3-7 6-1 5h-3l-1-3 4-6z" fill="#3A3B3E"/>
<path transform="translate(250,608)" d="m0 0 1 4-3 1-1 3-3 1-3-1-1-5h10z" fill="#EBEBEC"/>
<path transform="translate(1049,562)" d="m0 0 1 2-5 7h-4l-1-5 1-2 5-1h2z" fill="#37383B"/>
<path transform="translate(91,564)" d="m0 0h1v13l-4-1v-11z" fill="#FEFEFE"/>
<path transform="translate(801,481)" d="m0 0h18l6 2 2 5h-2v-2l-4-1-7-2-13-1z" fill="#55565C"/>
<path transform="translate(1293,414)" d="m0 0 3 1-6 4-6 8-5 10-1-4 7-12z" fill="#232326"/>
<path transform="translate(876,406)" d="m0 0 1 2h9l14-1-4 2-16 2h-9z" fill="#151517"/>
<path transform="translate(983,385)" d="m0 0 4 2-1 3-9 1-1-1h-6l4-2 5-1z" fill="#3B3C3F"/>
<path transform="translate(177,690)" d="m0 0h5l1 4v4l-6 1-1-3 5 1v-2l-5-1z" fill="#CFD3E0"/>
<path transform="translate(1316,538)" d="m0 0 1 3-6 15-4 4 1-5 7-15z" fill="#121F53"/>
<path transform="translate(1047,543)" d="m0 0 3 1v7l-1 2h-5v-6l1-2h2z" fill="#97999D"/>
<path transform="translate(828,504)" d="m0 0 4 1 4 2v2l5 2 3 5-5-2-2-1v-2l-5-2v-2l-4-2z" fill="#76787D"/>
<path transform="translate(827,479)" d="m0 0 4 2 10 10-2 1-5-3-7-8z" fill="#626469"/>
<path transform="translate(1256,483)" d="m0 0 4 1 1 4-1 1-10 1 1-5z" fill="#515359"/>
<path transform="translate(735,413)" d="m0 0 5 10 6 4v2l-6-1-4-5-1-2z" fill="#BDBEC1"/>
<path transform="translate(692,413)" d="m0 0 1 4-1 17-3-4-1-4 3-9h-6v-1h7z" fill="#D0D1D3"/>
<path transform="translate(785,407)" d="m0 0h15l1 4h-2v-3l-13 1-12 6 2-4z" fill="#4D4F53"/>
<path transform="translate(754,402)" d="m0 0h5l3 2-1 5-6 1v-5z" fill="#1F1F22"/>
<path transform="translate(947,391)" d="m0 0h12l-1 2h-2l-2 4-4-1-1-3h-2z" fill="#929399"/>
<path transform="translate(692,384)" d="m0 0 2 2 2 5-3 3h-2l1 3h-2l-2-5 2-5z" fill="#808289"/>
<path transform="translate(718,367)" d="m0 0 3 1-9 4v3l-3 2-3-1 1-6z" fill="#D0D1D3"/>
<path transform="translate(452,563)" d="m0 0 3 1v14h-3z" fill="#7D7E82"/>
<path transform="translate(878,466)" d="m0 0h15l-4 1-1 2-1 3 1 9h-2l-2-13-6-1z" fill="#454649"/>
<path transform="translate(870,448)" d="m0 0h10l-2 2-4 1h-15v-2z" fill="#323336"/>
<path transform="translate(989,396)" d="m0 0h2l-1 3-18 11v-3l9-5 1-2z" fill="#232426"/>
<path transform="translate(977,374)" d="m0 0 6 1-1 2-10 2h-10l2-2 12-2z" fill="#F0F0F1"/>
<path transform="translate(1250,307)" d="m0 0h4l9 12h-3l-6-5z" fill="#3F4044"/>
<path transform="translate(1213,527)" d="m0 0h14l9 1v1l-12 1-13-1z" fill="#101D4B"/>
<path transform="translate(694,391)" d="m0 0h3v2l3 1-2 1v2h-3v3h-2l-3-6 1-2h3z" fill="#C1C2C5"/>
<path transform="translate(1041,347)" d="m0 0h10l-1 2-16 2-4-3z" fill="#7D7F86"/>
<path transform="translate(1278,338)" d="m0 0 15 1v3h-14z" fill="#5E5F65"/>
<path transform="translate(1191,306)" d="m0 0 2 2 1 9v3l-6-1-1-6 4 1z" fill="#434446"/>
<path transform="translate(1107,296)" d="m0 0 3 1-7 14-2 6h-2l1-5 6-15z" fill="#C8C9CC"/>
<path transform="translate(1235,287)" d="m0 0 5 5 1 2-2 2-4-3v6l-2-3-1-5h3v-2h-6v-1z" fill="#4C4D52"/>
<path transform="translate(288,598)" d="m0 0h2l1 6 6-1v2l-6 2-2-1v12h-1z" fill="#3E3F42"/>
<path transform="translate(873,507)" d="m0 0 2 3v-2l3 1v1l21 1v1h-27z" fill="#3B3C41"/>
<path transform="translate(1305,505)" d="m0 0 8 3 1 1v7l-2-1-1-3-8-4z" fill="#4A4C50"/>
<path transform="translate(1018,451)" d="m0 0 5 2-2 5-4 6-3-1 3-6z" fill="#424346"/>
<path transform="translate(834,452)" d="m0 0h5l1 3-8 1v3h5v1h-6l-2-5z" fill="#84868D"/>
<path transform="translate(730,427)" d="m0 0h2l1 4-1 4h-17v-1h10l1-2h4z" fill="#5D5F63"/>
<path transform="translate(1059,425)" d="m0 0h17l7 3 1 3-9-2v-2l-16-1z" fill="#63656B"/>
<path transform="translate(865,416)" d="m0 0 21 2v1l-10 1h-12l-1-3z" fill="#48494D"/>
<path transform="translate(1228,279)" d="m0 0 4 2 12 12 1 4-7-6-5-6-5-4z" fill="#191A1D"/>
<path transform="translate(163,690)" d="m0 0h5l2 7v2h-7l-1-5 3 1-1 2 3-1-2-4-3 1z" fill="#E3E3E4"/>
<path transform="translate(1046,594)" d="m0 0 3 3-5 3h-8v-4h9z" fill="#66676D"/>
<path transform="translate(1051,496)" d="m0 0h2l-1 9-4 12-1-4z" fill="#5C5E64"/>
<path transform="translate(950,386)" d="m0 0 11 1v1l-14 2-8-1v-1z" fill="#4A4B4F"/>
<path transform="translate(1183,301)" d="m0 0 2 3 6 21-1 3-2-1-4-19z" fill="#111113"/>
<path transform="translate(1202,269)" d="m0 0 16 2 7 4-1 2-7-2v-2l-14-2z" fill="#81838A"/>
<path transform="translate(310,563)" d="m0 0h3 3v2l-4 3-1 9h-2v-13z" fill="#44454A"/>
<path transform="translate(247,563)" d="m0 0h6v2l-4 1-1 11h-2v-13z" fill="#444549"/>
<path transform="translate(949,497)" d="m0 0h10v2h-8v10h-2z" fill="#808288"/>
<path transform="translate(1050,471)" d="m0 0h11l2 2-12 1-8 4-2-1 3-3z" fill="#4E4F54"/>
<path transform="translate(767,447)" d="m0 0h3v2l-12 6-14-1v-1l15-1 7-4z" fill="#64666B"/>
<path transform="translate(848,404)" d="m0 0 2 1-2 3 13 2 2 1-1 2-2-1-12-1-3-3z" fill="#3D3E42"/>
<path transform="translate(703,406)" d="m0 0h7l1 6h-4v-2h-6z" fill="#161619"/>
<path transform="translate(960,382)" d="m0 0h9l-4 2-9 2h-9l3-2z" fill="#E2E3E4"/>
<path transform="translate(1102,301)" d="m0 0 1 2-8 21-2-4 8-18z" fill="#EFEFF0"/>
<path transform="translate(220,603)" d="m0 0h2v2l-4 3-1 10h-2v-14z" fill="#45464A"/>
<path transform="translate(1068,544)" d="m0 0 9 2v3l-5-1-10-1-1-2h7z" fill="#515257"/>
<path transform="translate(959,531)" d="m0 0 4 2-8 4-5-1 4-4z" fill="#696B71"/>
<path transform="translate(832,492)" d="m0 0 5 2 10 9v2h7v1h-8l-10-10z" fill="#5A5B60"/>
<path transform="translate(797,478)" d="m0 0 14 1 5 1v1h-18z" fill="#64666B"/>
<path transform="translate(701,425)" d="m0 0h8l1 5-5 1v-2l-5-1z" fill="#111113"/>
<path transform="translate(1315,413)" d="m0 0 4 1 4 7-1 2-9-6 2-2z" fill="#4D4E52"/>
<path transform="translate(1198,382)" d="m0 0h6v2l-3 2h-11l3-3z" fill="#1F1F22"/>
<path transform="translate(944,382)" d="m0 0h11l-2 2-13 2h-5l3-1v-2z" fill="#35363A"/>
<path transform="translate(1144,286)" d="m0 0h3l-1 3-11 5-3-1 9-6z" fill="#5F6065"/>
<path transform="translate(1141,275)" d="m0 0h5l-2 2h-3l-1 2h-5v2l-5 1-1 2v-3l4-3z" fill="#434447"/>
<path transform="translate(409,604)" d="m0 0h6v2l-3 2-1 10h-2z" fill="#28292C"/>
<path transform="translate(68,571)" d="m0 0h2l1 4h9l1-4v6l-2 1h-7l-4-4z" fill="#3B3C40"/>
<path transform="translate(430,571)" d="m0 0h10l-3 5h-5z" fill="#F2F3F3"/>
<path transform="translate(385,571)" d="m0 0h10l-3 5h-5z" fill="#F2F3F3"/>
<path transform="translate(319,571)" d="m0 0h10l-3 5h-5z" fill="#F1F1F2"/>
<path transform="translate(93,563)" d="m0 0h6v2l-3 2-1 10h-2z" fill="#343538"/>
<path transform="translate(444,563)" d="m0 0h6v2l-3 2-1 10h-2z" fill="#28282B"/>
<path transform="translate(861,520)" d="m0 0 6 1 2 2 13 1v1h-17l-4-3z" fill="#D0D1D3"/>
<path transform="translate(795,519)" d="m0 0h13v3h-12z" fill="#7A7C81"/>
<path transform="translate(88,37)" d="m0 0 9 3 1 4-4 1-1-3-3-1 1-2-4-1z" fill="#34488F"/>
<path transform="translate(342,604)" d="m0 0 3 1-3 3 1 5 3 5-4-2-2-5-3-1z" fill="#37383B"/>
<path transform="translate(293,563)" d="m0 0h6v2l-3 2-1 10h-2z" fill="#27272A"/>
<path transform="translate(670,488)" d="m0 0h2l-3 9-2 2-1-1-2 3 1-6 2-4h2z" fill="#7E8086"/>
<path transform="translate(879,467)" d="m0 0h4v8l1 6-4-2-1-5 2-6z" fill="#6C6E73"/>
<path transform="translate(711,449)" d="m0 0 1 2 14 1 1 3-15-1z" fill="#CACBCD"/>
<path transform="translate(844,421)" d="m0 0h2v5 3l-4 3-2-1 2-7z" fill="#3A3B41"/>
<path transform="translate(935,397)" d="m0 0h6l-3 2h-2l1 2 4 2-1 3-4-1-3-4v-2h2z" fill="#4A4B50"/>
<path transform="translate(973,380)" d="m0 0h7l-4 3-10 2h-6v-1l5-1v-2z" fill="#6F7177"/>
<path transform="translate(1179,314)" d="m0 0 1 2 5 1 2-1v8l-1-2-6-2z" fill="#434446"/>
<path transform="translate(1109,312)" d="m0 0h3l1 4 2 2-6 3-3-1z" fill="#424346"/>
<path transform="translate(154,604)" d="m0 0h6v2l-3 1-1 11h-2z" fill="#2F3033"/>
<path transform="translate(143,563)" d="m0 0h6l1 1v13h-2v-12l-5-1z" fill="#45464A"/>
<path transform="translate(1105,507)" d="m0 0h1l1 9 4-2 2 3-3 3-5-1z" fill="#4E5054"/>
<path transform="translate(924,514)" d="m0 0 14 1v1l-9 1h-16v-1h11z" fill="#5B5C61"/>
<path transform="translate(1146,510)" d="m0 0 3 1 2 2-13 2h-7v-1h6v-2l8-1z" fill="#434447"/>
<path transform="translate(1142,510)" d="m0 0 4 1-3 1h-6v2l-9 1-5-1v-1z" fill="#5D5F65"/>
<path transform="translate(679,478)" d="m0 0 2 2-2 5-1 7-3 1 1-10z" fill="#81838A"/>
<path transform="translate(929,394)" d="m0 0 10 1v1l-16 2-4-2z" fill="#4B4D52"/>
<path transform="translate(1143,327)" d="m0 0h16v2l2 1-18 1 3-1v-2z" fill="#3F4146"/>
<path transform="translate(1239,310)" d="m0 0 1 2 4-1 4 2 2 5-4-3-2 2-4-1z" fill="#424346"/>
<path transform="translate(1124,258)" d="m0 0h7l-4 4-9 1v-2z" fill="#3B3C41"/>
<path transform="translate(102,690)" d="m0 0 4 1 3-1-1 5 1 4-4-2-3 2 1-6z" fill="#DFE0E1"/>
<path transform="translate(180,568)" d="m0 0 2 2 2 5h5l1-2h2l-2 4-1 1-7-1-2-2z" fill="#2F3033"/>
<path transform="translate(241,563)" d="m0 0h2v14h-6l3-4z" fill="#333438"/>
<path transform="translate(1297,541)" d="m0 0h7l-1 4-3 4h-3z" fill="#64666B"/>
<path transform="translate(899,483)" d="m0 0 3 3v4h-2l-1 7h-2v-7z" fill="#616368"/>
<path transform="translate(820,473)" d="m0 0 7 4 2 6-4-1-5-7z" fill="#74767C"/>
<path transform="translate(1085,431)" d="m0 0 4 2 4 6v2h-2l-5-5-3-1v-2h2z" fill="#55575D"/>
<path transform="translate(851,411)" d="m0 0h9l2 1-1 2-2-1h-7l-1 1-1 11h-2v-13z" fill="#595B61"/>
<path transform="translate(749,405)" d="m0 0h4v6h-6v-4z" fill="#505155"/>
<path transform="translate(939,389)" d="m0 0h13l-2 2-7 2h-7z" fill="#131315"/>
<path transform="translate(1332,359)" d="m0 0 3 1v3 3h-4v-2l-6-2-1-2h6z" fill="#7E8085"/>
<path transform="translate(843,347)" d="m0 0h2v2l16 1v1l-20 1-2-2h3z" fill="#77797F"/>
<path transform="translate(935,273)" d="m0 0h2v2l-6 3-6 2h-5l2-2z" fill="#575B67"/>
<path transform="translate(1193,265)" d="m0 0 13 1-4 1v2l-13-1z" fill="#E3E4E5"/>
<path transform="translate(101,692)" d="m0 0 3 1-2 5-8-1v-3h7z" fill="#335BEE"/>
<path transform="translate(451,605)" d="m0 0 5 1 1 4h-8l1-4z" fill="#E4E4E5"/>
<path transform="translate(242,605)" d="m0 0 5 1 1 4h-8l1-4z" fill="#E9EAEB"/>
<path transform="translate(174,605)" d="m0 0 5 1 1 4h-8l1-4z" fill="#E7E8E9"/>
<path transform="translate(286,570)" d="m0 0 1 4-2 2h-5v-4z" fill="#F1F2F2"/>
<path transform="translate(1022,556)" d="m0 0 2 1 3 9-1 5-3-2-1-10z" fill="#3B3C41"/>
<path transform="translate(1281,500)" d="m0 0 2 2v4h2v2h2v3l-6-1z" fill="#5C5D62"/>
<path transform="translate(1308,487)" d="m0 0 2 1-8 9h-2v2l-5-1 2-2 4-2z" fill="#4F5156"/>
<path transform="translate(684,475)" d="m0 0 12 1v1l-12 1-4 8-2 3 1-7 2-5z" fill="#54565B"/>
<path transform="translate(1061,471)" d="m0 0 4 1 2 2-1 1h-13l-2-2 10-1z" fill="#3B3C41"/>
<path transform="translate(1049,432)" d="m0 0 7 1v1l-15 4-3-1 7-4z" fill="#595B60"/>
<path transform="translate(766,431)" d="m0 0 4 1-5 3-21-1v-1l20-1z" fill="#73757A"/>
<path transform="translate(711,408)" d="m0 0 2 3 13 2v2l-18-1v-2h3z" fill="#D0D1D3"/>
<path transform="translate(829,333)" d="m0 0 1 3-1 2h-7l-2-2 2-2z" fill="#686A6F"/>
<path transform="translate(1131,256)" d="m0 0h14v1l-12 2-2 3-4-1 3-2-2-2z" fill="#5B5D63"/>
<path transform="translate(378,617)" d="m0 0 1 3-2 2h-5l-4-1v-2z" fill="#E5E5E7"/>
<path transform="translate(468,611)" d="m0 0 5 1-1 5-1 1h-7l-2-2v-3h2l2 3h5l-1-3z" fill="#2F3033"/>
<path transform="translate(474,563)" d="m0 0 4 2-2 3-1 9h-2v-13z" fill="#46474B"/>
<path transform="translate(831,543)" d="m0 0 10 1 3 5-6-1-7-4z" fill="#505256"/>
<path transform="translate(1208,522)" d="m0 0h10l-2 2h-3v2l-9-1z" fill="#54565B"/>
<path transform="translate(1228,494)" d="m0 0h10v2l-6 1h-11v-1z" fill="#9FA0A5"/>
<path transform="translate(1208,474)" d="m0 0 2 1v5l9-1-2 2-3 1h-7v-7z" fill="#75777D"/>
<path transform="translate(1048,465)" d="m0 0 3 3v2h-5v3l-4-1 2-6h3z" fill="#35363B"/>
<path transform="translate(1015,451)" d="m0 0 2 1-8 15h-2l2-6z" fill="#1F1F22"/>
<path transform="translate(1298,451)" d="m0 0h5l-1 2h-2v2l-9 6 2-4 3-5z" fill="#494B4F"/>
<path transform="translate(666,437)" d="m0 0 4 2v14l-2-2-1-9z" fill="#65676C"/>
<path transform="translate(767,407)" d="m0 0h1v7l-4 10-2-1 1-1 2-12z" fill="#6A6C71"/>
<path transform="translate(830,412)" d="m0 0h5v2l-6 1-18-1v-1z" fill="#56585D"/>
<path transform="translate(682,404)" d="m0 0h5l6 5-1 4v-3l-5-2h-2l-3 1z" fill="#86878E"/>
<path transform="translate(960,389)" d="m0 0h6l-1 2h-5l-2 5-3-1 3-3-8-1v-1z" fill="#5C5E63"/>
<path transform="translate(742,616)" d="m0 0 5 4 9 3-3 2-9-3-2-1z" fill="#5C5E63"/>
<path transform="translate(1054,594)" d="m0 0 2 1 1 4h2v2l-7 1v-4h2z" fill="#888A8E"/>
<path transform="translate(358,571)" d="m0 0h7l-1 4-6 1-1-4z" fill="#F3F4F4"/>
<path transform="translate(119,571)" d="m0 0h6v4l-7 1z" fill="#EFEFF0"/>
<path transform="translate(1075,512)" d="m0 0 3 4 2 10-6 2-2-2 5-2z" fill="#5D5E62"/>
<path transform="translate(1110,500)" d="m0 0 1 4-1 8h-3v-9z" fill="#86888F"/>
<path transform="translate(1311,490)" d="m0 0h2l1 4v9l-2-2-3-9z" fill="#585A5F"/>
<path transform="translate(1135,268)" d="m0 0h5l-1 2-10 3-4 1-1-2 6-3z" fill="#D3D4D6"/>
<path transform="translate(239,611)" d="m0 0 2 3v2l6-1 1-2h2l-1 4-1 1h-7l-3-3z" fill="#3D3E42"/>
<path transform="translate(268,604)" d="m0 0h7l2 4h-2l-1-2h-4l-1 3 4 2h-5l-1-1v-5z" fill="#28282B"/>
<path transform="translate(437,603)" d="m0 0 5 1 2 4-4-2h-4l-3 6-1-4 1-3z" fill="#2C2D30"/>
<path transform="translate(1144,541)" d="m0 0h13v1l-15 3-3-1z" fill="#121F51"/>
<path transform="translate(688,538)" d="m0 0 21 1-3 3h-2l-1 2v-3l-15-2z" fill="#505257"/>
<path transform="translate(882,485)" d="m0 0 3 1 7 8 3 4h-6l2-2-9-9z" fill="#6E6F75"/>
<path transform="translate(1040,477)" d="m0 0 2 2-4 4h-2l-2 4-2 1 2-5 3-5z" fill="#3E3F43"/>
<path transform="translate(885,406)" d="m0 0 9 1v1l-8 1h-10l1-2z" fill="#5C5D63"/>
<path transform="translate(1187,374)" d="m0 0 2 1-2 3 3 1-10 3 1-4z" fill="#7A7C82"/>
<path transform="translate(976,377)" d="m0 0h12v1l-10 2h-8l2-2z" fill="#2F2F32"/>
<path transform="translate(1007,374)" d="m0 0h5v3l-5 1h-7l1-2z" fill="#8A8B92"/>
<path transform="translate(1226,37)" d="m0 0h3l1 6-1 3h-3l-1-4z" fill="#A7B1D3"/>
<path transform="translate(380,604)" d="m0 0h1v14l-1-2-3 1 1-9v-2h2z" fill="#1C1C1F"/>
<path transform="translate(313,604)" d="m0 0 3 2 1 7-3 5h-2l2-5-1-6z" fill="#3C3D42"/>
<path transform="translate(174,603)" d="m0 0 6 1 2 4-2 2-2-4-5 1-2 3-1-3z" fill="#3D3E42"/>
<path transform="translate(398,563)" d="m0 0 4 2 1 2h2l3-4 2 1-5 7h-2l-5-7z" fill="#313236"/>
<path transform="translate(131,563)" d="m0 0h2l1 4-1 10h-2z" fill="#2A2A2E"/>
<path transform="translate(891,537)" d="m0 0h19v1l-18 2-3-2z" fill="#FEFEFE"/>
<path transform="translate(1194,531)" d="m0 0h5l-3 3-13 1 2-2z" fill="#0F1B46"/>
<path transform="translate(949,525)" d="m0 0 5 1-3 2v5l2 1-3 3-3-1 1-2z" fill="#5C5E63"/>
<path transform="translate(1319,524)" d="m0 0 1 3-2 10-3 3 1-6 1-8z" fill="#0F1B48"/>
<path transform="translate(1238,516)" d="m0 0h5l-4 2 1 2-10 1-1-3z" fill="#44454A"/>
<path transform="translate(726,509)" d="m0 0h5l1 5h-7z" fill="#A3A4A8"/>
<path transform="translate(701,442)" d="m0 0h7l3 1-1 5-5-3-4-1z" fill="#57595E"/>
<path transform="translate(742,438)" d="m0 0h10l-1 2-4 2h-5z" fill="#5A5C62"/>
<path transform="translate(1337,427)" d="m0 0 4 2-1 2-5 2-3-1 2-4z" fill="#FAFBFB"/>
<path transform="translate(802,427)" d="m0 0h2l-1 3-9 4-3-1 1-2z" fill="#606268"/>
<path transform="translate(871,408)" d="m0 0 2 1-1 1 4 2h-6v2l-5 3-2-1 5-6z" fill="#56575C"/>
<path transform="translate(696,411)" d="m0 0h10v3h-10z" fill="#C6C7C9"/>
<path transform="translate(891,388)" d="m0 0h12l-2 2-14 1 1-2z" fill="#1D1D20"/>
<path transform="translate(900,387)" d="m0 0h12l4 2-15 1z" fill="#37383C"/>
<path transform="translate(1179,261)" d="m0 0h11l-2 1v2h-7l-5-1z" fill="#323337"/>
<path transform="translate(1239,37)" d="m0 0h6l1 1v7h-1l-1-7-2 1-1 6h-2z" fill="#3F64EB"/>
<path transform="translate(1257,37)" d="m0 0h6l1 1v7h-2v-7l-3 2-1 5h-1z" fill="#3A5EE2"/>
<path transform="translate(452,603)" d="m0 0 5 1 2 3-2 3-2-4-5 1-2 3-1-3 3-3z" fill="#3C3D41"/>
<path transform="translate(323,603)" d="m0 0 6 1v3l-6-1-2 7h-1l-1-7z" fill="#47484C"/>
<path transform="translate(204,603)" d="m0 0 6 1v3l-6-1-2 7h-1l-1-7z" fill="#47484D"/>
<path transform="translate(1029,584)" d="m0 0 3 1v3h5l-1 3h-5l-3-4z" fill="#5B5D61"/>
<path transform="translate(1054,564)" d="m0 0h4l2 9h-3z" fill="#6C6E73"/>
<path transform="translate(432,565)" d="m0 0h5l2 4h-9z" fill="#F6F6F6"/>
<path transform="translate(321,565)" d="m0 0h5l2 4h-9z" fill="#F6F6F6"/>
<path transform="translate(266,563)" d="m0 0h6l2 2-1 3-2-2h-5l-2 5h-1v-5z" fill="#2E2E32"/>
<path transform="translate(1155,508)" d="m0 0 4 1-4 3h-7v-3z" fill="#56585D"/>
<path transform="translate(1289,453)" d="m0 0 3 1v2h-2l-2 4-4-5z" fill="#323337"/>
<path transform="translate(1048,427)" d="m0 0h9v2l-10 2-2 1-3-2 6-1z" fill="#434449"/>
<path transform="translate(917,398)" d="m0 0 4 1-7 6-4-2 4-3h3z" fill="#87898F"/>
<path transform="translate(1275,368)" d="m0 0h4v2l-4 2-4 3-3 1v-3l6-4z" fill="#787A80"/>
<path transform="translate(1278,336)" d="m0 0 10 1 5 1v1h-14z" fill="#161618"/>
<path transform="translate(1101,334)" d="m0 0h3l1 2 1 10-3 1v-6l-2-3z" fill="#3D3E43"/>
<path transform="translate(1154,279)" d="m0 0 1 4-2 1zm-3 5 8 2v1l-12 1v-3z" fill="#57585E"/>
<path transform="translate(919,278)" d="m0 0 6 1h5l-4 2-12 2 1-2h2v-2z" fill="#A7AAB2"/>
<path transform="translate(1210,274)" d="m0 0h7l7 3-1 2-9-1v-2z" fill="#54565A"/>
<path transform="translate(262,612)" d="m0 0h2l-1 5-1 1h-7l-2-2v-3h2l2 3h5z" fill="#313236"/>
<path transform="translate(417,608)" d="m0 0h1l2 8h5l3-2-1 4h-7l-3-3z" fill="#2A2B2E"/>
<path transform="translate(1028,569)" d="m0 0 1 3 2 1-4 7-2-2 1-4z" fill="#57585E"/>
<path transform="translate(507,565)" d="m0 0h5l1 4h-8z" fill="#F5F5F6"/>
<path transform="translate(462,565)" d="m0 0h5l1 4h-8z" fill="#F7F7F7"/>
<path transform="translate(387,565)" d="m0 0h5l2 4h-8z" fill="#F7F7F7"/>
<path transform="translate(358,565)" d="m0 0h6v4l-7 1z" fill="#F4F4F4"/>
<path transform="translate(184,565)" d="m0 0h5l1 4h-8z" fill="#F9F9F9"/>
<path transform="translate(105,565)" d="m0 0h5l1 4h-8z" fill="#F9F9F9"/>
<path transform="translate(491,563)" d="m0 0h7l2 2v3h-2l-1-2h-5l-2 2-1-3z" fill="#3E3F43"/>
<path transform="translate(169,563)" d="m0 0h6l1 1v13h-1l-1-11h-6z" fill="#2A2B2E"/>
<path transform="translate(854,414)" d="m0 0 5 1-1 3-5 2-1-3z" fill="#92949A"/>
<path transform="translate(845,406)" d="m0 0 2 1-3 1-1 7-3 4-1-5 4-7z" fill="#5C5E63"/>
<path transform="translate(719,408)" d="m0 0 1 2 6 2v1h-9l-4-2h2l1-2z" fill="#62646A"/>
<path transform="translate(1e3 383)" d="m0 0 7 1-5 5-4 2v-3h3l1-3z" fill="#4E4F54"/>
<path transform="translate(1e3 381)" d="m0 0 2 1-1 2-5 1-1 3-3-1-1-4z" fill="#585A5F"/>
<path transform="translate(1265,342)" d="m0 0 4 1h10v2l-16 1z" fill="#5C5E63"/>
<path transform="translate(1112,263)" d="m0 0h5l-3 2-10 4-1-3z" fill="#47484D"/>
<path transform="translate(362,605)" d="m0 0 3 1v12h-2z" fill="#333438"/>
<path transform="translate(226,600)" d="m0 0 1 4 3 1h-3l1 11 2 2h-4v-13l-2-1h2z" fill="#171719"/>
<path transform="translate(95,600)" d="m0 0 1 4 3 1h-3l1 11 2 2h-4v-13l-2-1h2z" fill="#161719"/>
<path transform="translate(1122,535)" d="m0 0 5 1 1 1 7 1v1h-14z" fill="#5C5D63"/>
<path transform="translate(1171,529)" d="m0 0h5l4 3-14 1v-2z" fill="#4B4C52"/>
<path transform="translate(1178,528)" d="m0 0h8l-1 3h-10z" fill="#4F5157"/>
<path transform="translate(710,508)" d="m0 0h7l-1 4-6 1z" fill="#96989C"/>
<path transform="translate(801,449)" d="m0 0h3l-1 4h-9v-3z" fill="#92949A"/>
<path transform="translate(694,450)" d="m0 0h11v3l-11-1z" fill="#C7C8CB"/>
<path transform="translate(778,414)" d="m0 0 4 1 16 1v1h-19l-2-2z" fill="#5A5C61"/>
<path transform="translate(685,406)" d="m0 0 6 4v2l-6 1z" fill="#2B2C2F"/>
<path transform="translate(1013,373)" d="m0 0h1v8l-4 3v-4l-3-1 5-2z" fill="#53555A"/>
<path transform="translate(1271,334)" d="m0 0 3 1-6 4-5 7-2-2 5-7z" fill="#C7C8CB"/>
<path transform="translate(913,295)" d="m0 0 3 3-2 4h-3l-1-4z" fill="#CDCED0"/>
<path transform="translate(119,565)" d="m0 0h6v4l-7 1z" fill="#F6F7F7"/>
<path transform="translate(432,563)" d="m0 0 7 1 2 3v3h-2l-2-4h-7z" fill="#2F3033"/>
<path transform="translate(840,534)" d="m0 0 6 2 2 1-1 4h-2v-2l-3-1z" fill="#626469"/>
<path transform="translate(907,405)" d="m0 0m-9 1h9l3 2-14 1z" fill="#3C3C41"/>
<path transform="translate(971,400)" d="m0 0 2 1v6l-4 2-3-1 3-2 1-4z" fill="#3E3F43"/>
<path transform="translate(961,395)" d="m0 0h2l-1 4-6 5v-5l3-2z" fill="#121214"/>
<path transform="translate(986,383)" d="m0 0 4 1v4l2 1h-5v-2l-3-1z" fill="#585A5F"/>
<path transform="translate(1007,377)" d="m0 0 4 1-3 1 2 1v4l-7-1 1-2h2z" fill="#626469"/>
<path transform="translate(177,39)" d="m0 0 4 1v5l-4 1z" fill="#DEDEE0"/>
</svg>
